<svg xmlns="http://www.w3.org/2000/svg" viewBox="0 0 1793.5 187.77"><defs><style>.cls-1,.cls-2{fill:#fff;}.cls-2{fill-rule:evenodd;}</style></defs><g id="Layer_2" data-name="Layer 2"><g id="Layer_1-2" data-name="Layer 1"><g id="Layer_2-2" data-name="Layer 2"><g id="Layer_1-2-2" data-name="Layer 1-2"><path class="cls-1" d="M108.5,54.17V49.91c0-3.63.1-7.26.11-10.9,0-5.72.09-11.44.06-17.16,0-3.66-.11-7.31-.27-11a9.73,9.73,0,0,0-.75-3c-.58-1.5-1.91-2-3.37-2.15-.91-.11-1.24-.6-.94-1.46a.63.63,0,0,1,.43-.33q7.73-1.4,15.46-2.82h.17V18.77l.68-.32c4.28-2,8.67-2.62,13.12-.7a14.39,14.39,0,0,1,8.11,9.44A24.25,24.25,0,0,1,139.4,47c-2.66,4.71-6.9,7.35-12.13,8.44a33.84,33.84,0,0,1-11.79.06c-2.11-.3-4.2-.73-6.3-1.11A6.6,6.6,0,0,0,108.5,54.17Zm10.83-14.66h0v6.43c0,2.14.1,4.08.17,6.12,0,.38,0,.84.53.93,2.52.37,4.86.09,6.6-2a15.45,15.45,0,0,0,1.77-2.62A28,28,0,0,0,131.08,36a23.55,23.55,0,0,0-1.8-10.32,8.87,8.87,0,0,0-3.11-3.92c-2-1.33-4.17-1.15-6.37-.41-.39.14-.5.29-.5.67V39.51Z"/><path class="cls-1" d="M19.5,5.9c-.15,7.13-.3,14.18-.45,21.29,2.29-.1,4.45-.1,6.54-.29a4.46,4.46,0,0,0,3.74-2.6c.69-1.43,1.17-3,1.79-4.58H33V37.5H31c-.36-1.17-.63-2.32-1.05-3.41-1-2.45-2.64-3.88-5.43-3.84-1.75,0-3.51-.15-5.37-.24v2.45c.11,3.83.15,7.67.38,11.49a25.56,25.56,0,0,0,.86,5.14,4.28,4.28,0,0,0,4.07,3.3c.94.09,1.87.31,2.77.46.2,2.07.2,2.07-1.73,2.07H0V52.86c.93-.19,1.89-.44,2.87-.58A4,4,0,0,0,6.26,49.5a17.57,17.57,0,0,0,.93-4.18c.56-8.2.57-16.42.45-24.64,0-3-.2-6-.45-9.06a16.63,16.63,0,0,0-.86-3.88A4.56,4.56,0,0,0,2,4.56L0,4.35V2.09H42.5c.09,4.88.17,9.79.25,14.79l-2,.64c-.53.16-.57-.27-.67-.59a24.71,24.71,0,0,0-3.2-6.62,10.11,10.11,0,0,0-8.62-4.45C25.41,5.91,22.56,5.9,19.5,5.9Z"/><path class="cls-1" d="M37.4,35.67A20.4,20.4,0,0,1,42.67,21.6,17,17,0,0,1,53,16.36a20.8,20.8,0,0,1,10.4,1,15.49,15.49,0,0,1,9.55,10,24.32,24.32,0,0,1-.1,17.14c-2.58,6.59-7.5,10.36-14.57,11.23a20.58,20.58,0,0,1-9.9-1c-5.3-2-8.44-6-10-11.3A27.86,27.86,0,0,1,37.4,35.67ZM63,37.61h.21c-.28-3-.44-6.12-.84-9.16a16.1,16.1,0,0,0-2.69-7.36c-2.12-3-6-3.17-8-.28a12.11,12.11,0,0,0-1.47,3,30.18,30.18,0,0,0-1.29,8.28,49.61,49.61,0,0,0,.66,12.41,16.43,16.43,0,0,0,2.65,6.76,4.68,4.68,0,0,0,7.81,0,13.48,13.48,0,0,0,1.75-3.72A38.64,38.64,0,0,0,63,37.61Z"/><path class="cls-1" d="M179.21,34.32H157.55c-.65,0-.87.12-.84.84a23.47,23.47,0,0,0,1,6.61c1.9,5.72,6.3,8.75,12.31,8.57a12.29,12.29,0,0,0,7-2.29c.28-.2.6-.66,1-.09s.85.82.25,1.54a17.26,17.26,0,0,1-10.92,6.16,18.66,18.66,0,0,1-13-2.34,17.22,17.22,0,0,1-8-10.93c-1.62-6.43-1-12.62,2.61-18.29a16.44,16.44,0,0,1,12.21-7.74,18.59,18.59,0,0,1,7.05.25A12.83,12.83,0,0,1,176.6,23,23.1,23.1,0,0,1,179.21,34.32Zm-22.48-2.84,11.39-.28c-.15-2-.22-3.8-.46-5.61A12.08,12.08,0,0,0,166,20.33a3.21,3.21,0,0,0-4.37-1.22h0a2.77,2.77,0,0,0-.45.31,4.74,4.74,0,0,0-1,1c-2.46,3.23-3,7-3.35,11.06Z"/><path class="cls-1" d="M208.14,23.09v4.39c0,1-.9.66-1.37.94a1.42,1.42,0,0,1-.57-.57,17.22,17.22,0,0,0-3.82-6.76A7.09,7.09,0,0,0,196.6,19c-2.84.27-4.66,2.61-4.59,5.59a5.4,5.4,0,0,0,3.3,4.79c2.36,1.26,4.84,2.33,7.28,3.46a14.09,14.09,0,0,1,5.91,4.34,9.13,9.13,0,0,1,1.62,5,12.45,12.45,0,0,1-1.78,7.51,13.15,13.15,0,0,1-8.84,5.71,27.69,27.69,0,0,1-10.58,0c-2.22-.37-4.39-1-6.58-1.56-.47-.12-.6-.4-.61-.88,0-3.33-.13-6.67-.22-10,0-.55.34-.55.65-.64,1.34-.4,1.06-.36,1.48.7a19.93,19.93,0,0,0,3.69,6.45,8.38,8.38,0,0,0,8,2.69,5.46,5.46,0,0,0,4.39-4.37,5.14,5.14,0,0,0-2.67-5.87,41.73,41.73,0,0,0-5.12-2.38,23,23,0,0,1-6.19-3.24c-2.87-2.39-3.76-5.54-3.47-9.13.46-5.6,5-9.63,10.49-10.65a28.17,28.17,0,0,1,14.13,1.18,1.24,1.24,0,0,1,1,1.44c-.08,1.31,0,2.62,0,3.93Z"/><path class="cls-1" d="M74.61,19.4l16.1-3.26v8.22c.46-.8.88-1.61,1.37-2.38a12.45,12.45,0,0,1,6.3-5.41,8.86,8.86,0,0,1,6.69.16c.56.24.73.51.49,1.14-1.22,3.16-2.39,6.33-3.62,9.61l-.81-.44a9.91,9.91,0,0,0-9-.69,2.24,2.24,0,0,0-1.63,2.34c.06,4.21-.1,8.42,0,12.63a68.3,68.3,0,0,0,.5,7.83c.34,2.62,1.38,3.4,4,3.54.64,0,1.29.1,2,.16v2.08H75.79c-1.49,0-1.2,0-1.23-1.2v-.82c.42-.08.8-.17,1.19-.22,2.4-.3,3.55-1.34,3.76-3.75s.29-5.13.35-7.69c.07-3.2.11-6.41.06-9.6,0-2.29-.19-4.58-.4-6.86S78.3,21.51,76,21.19C74.5,21,74.5,21,74.61,19.4Z"/><path class="cls-1" d="M328,48.38h10.33l5.53-31.7h-10.3L331.5,28h-8.95l2-11.35H314.27l-5.53,31.7h10.33l2.08-11.86h9Zm21.72-31.74-3.15,17.64a20.7,20.7,0,0,0-.39,4c0,9.35,8.17,10.76,13.08,10.76C369.55,49,374,45.63,375.6,36.4l3.45-19.75H368.74L365.8,33.18c-.94,5.18-1.61,7.89-5.46,7.89-2.51,0-3.73-1.33-3.73-4.08a21.52,21.52,0,0,1,.47-4l3-16.41H349.74Zm83.92,31.74H444l1.45-8.17h4.87c9,0,14-4.87,14-13.75,0-6.24-4.32-9.82-11.9-9.82h-13.2Zm16.1-16h-3l1.38-7.46h2.79c2.27,0,3.49,1.14,3.49,3.22,0,2.64-1.76,4.25-4.66,4.25ZM484.36,16c-11.24,0-17.95,7.26-17.95,19.48,0,8.48,5.34,13.58,14.29,13.58,11.23,0,17.95-7.26,17.95-19.48C498.65,21,493.35,16,484.36,16Zm-3,24.86c-2.67,0-4.24-1.93-4.24-5.15a17.81,17.81,0,0,1,.35-3.49c.79-4.17,2.12-8,6.33-8,2.67,0,4.24,1.93,4.24,5.15a17.09,17.09,0,0,1-.36,3.49c-.81,4.16-2.18,8-6.35,8Zm53.25,7.54h10.33L549,25.16h7.78l1.49-8.49H531.83l-1.49,8.49h8.25Zm-17.11-20c-3.26-1-4.59-1.46-4.59-3,0-1,.66-2.24,2.63-2.24a3.29,3.29,0,0,1,3.14,2.05l9.11-2.48c-1.06-4.48-4.91-6.75-11.55-6.75-12.48,0-13.47,8.36-13.47,10.91,0,5.19,2.75,8.37,8.72,10,1.57.43,3.38.9,3.38,2.63,0,1.37-1,2.24-2.79,2.24a4.17,4.17,0,0,1-3.93-2.59l-9,2.43c1,4.71,5.42,7.38,12.37,7.38,5.3,0,14.18-1.41,14.18-11,0-4.79-2.67-7.93-8.21-9.62Z"/><path class="cls-1" d="M303,48.38l5.54-31.7h-17v31.7Zm259.7-31.7-5.54,31.7h17.09V16.68Z"/><path class="cls-1" d="M391.4,39h8.68l1.42-7.94h-8.67l1-5.89H406l1.49-8.53H385l-5.54,31.74h10.33Zm27.06,0h8.72l1.41-8h-8.68l1-5.89h12.14l1.45-8.5H412.06L406.5,48.38h10.33Z"/><path class="cls-2" d="M1287.56,3.09c-.2,3.38-.4,6.76-.6,10.25l-5.06-.18c-.12-2.13-.23-4.19-.35-6.32h-7.89V22h3.42c.26-1.1.53-2.19.8-3.33h3.52V29.09h-3.46c-.28-1.11-.57-2.26-.87-3.43h-3.39v16h7.92c.26-2.28.51-4.54.77-6.93l5.33.18c.14,3.56.28,7.06.42,10.62h-25.93V41.79l3.64-.63V7.25l-4.07-.45V3.09Z"/><path class="cls-2" d="M1379.32,59.89c.07-1,.13-2,.19-2.92l2.75-.6V20.19L1379,19.7v-3l8.63-1.2.9,3.23a2.59,2.59,0,0,0,.35-.31,8.79,8.79,0,0,1,7.92-3c3.89.38,6,2.83,7.11,6.34a22.64,22.64,0,0,1,.92,4.83,37.6,37.6,0,0,1-.34,10.05,18,18,0,0,1-1.06,3.61,9,9,0,0,1-8,5.67,11.25,11.25,0,0,1-5.59-.81,3,3,0,0,0-.43-.12V56.37l2.94.61c-.07,1-.13,1.9-.2,2.91Zm10-18.91a9,9,0,0,0,6.78.23,1.13,1.13,0,0,0,.81-.85,32.46,32.46,0,0,0,.78-3.38,48.58,48.58,0,0,0,.18-10.44,15.47,15.47,0,0,0-.67-3.5c-.76-2.46-2.43-3.41-5-3l-.38.08a3,3,0,0,0-2.5,3V41Z"/><path class="cls-2" d="M1475.3,41.83l3,.61c0,1-.11,2-.16,3.07h-9.88V25.17a8.78,8.78,0,0,0-.47-2.64,2.74,2.74,0,0,0-2.21-1.81,4.83,4.83,0,0,0-3,.25,2.15,2.15,0,0,0-1.48,2V41.59a1.37,1.37,0,0,0,.07.29l2.9.59c-.06,1-.12,2-.19,3.09h-12.72V42.45l2.83-.61V20.49l-3.24-.37V17l8.39-1.2q.39,1.39.75,2.73c.64-.48,1.29-1.05,2-1.51a9.59,9.59,0,0,1,8.81-1,6.65,6.65,0,0,1,4.36,5.6,13.76,13.76,0,0,1,.18,2.22V40.69Z"/><path class="cls-2" d="M1300.58,41.84l2.93.59c-.06,1-.12,2-.19,3.08H1290.5c.06-1,.11-2,.17-3.07l2.73-.59c.2-.69.25-20.27,0-21.36l-3.24-.37V17l8.41-1.2c.25.93.5,1.81.76,2.79.24-.2.5-.45.78-.68a9.89,9.89,0,0,1,9.16-2.13,6.7,6.7,0,0,1,5.2,5.63,11.16,11.16,0,0,1,.21,2.31V41.87l3,.59a11,11,0,0,1-.07,1.52,13.88,13.88,0,0,0,0,1.58h-9.93V25.78a15,15,0,0,0-.18-2.22,3.14,3.14,0,0,0-3-2.9,3.68,3.68,0,0,0-3.45,1,2.23,2.23,0,0,0-.54,1.5V40.8C1300.5,41.16,1300.56,41.48,1300.58,41.84Z"/><path class="cls-2" d="M1520.72,19.7l-3.26-.32V16.61l9.6-1.1a11,11,0,0,1,.8,3.53V41.83l3,.61c-.1,1-.2,2-.31,3.07h-8.27c-.23-.73-.49-1.51-.78-2.39-.27.21-.47.35-.65.51A9.76,9.76,0,0,1,1510.07,45a6.92,6.92,0,0,1-3.86-5.37,13.92,13.92,0,0,1-.2-2.41V19.73l-3.27-.36V16.61l9.56-1.1a13.43,13.43,0,0,1,.73,3.19V35.77a17.93,17.93,0,0,0,.16,2.31,3.54,3.54,0,0,0,3.7,3.36,9.11,9.11,0,0,0,2.2-.3,3.08,3.08,0,0,0,1.77-2.33V20C1520.82,19.9,1520.77,19.8,1520.72,19.7Z"/><path class="cls-2" d="M1363.33,32.55A11,11,0,0,0,1365,39a5.65,5.65,0,0,0,4.82,2.6,13.61,13.61,0,0,0,5.56-1.11c.23-.1.47-.18.8-.31l1.2,2.76A15,15,0,0,1,1375.8,44a14.51,14.51,0,0,1-11.3,1.44,11,11,0,0,1-6.93-6.32,20.39,20.39,0,0,1-1.63-10.6,19,19,0,0,1,1.62-6.45,10.59,10.59,0,0,1,7.63-6.4c3.51-.74,6.77-.3,9.46,2.3a12.19,12.19,0,0,1,3.09,5.61,24.12,24.12,0,0,1,.86,6.6,8.09,8.09,0,0,1-.66,2.2Zm8.82-3.82c-.08-.9-.12-1.63-.21-2.37a13.29,13.29,0,0,0-1.42-5,3.29,3.29,0,0,0-4.27-1.63,2.22,2.22,0,0,0-1.5,1.36,22.58,22.58,0,0,0-1.56,7.44,2.44,2.44,0,0,0,.11.6Z"/><path class="cls-2" d="M1501.5,32.37l-14.59.18a9.45,9.45,0,0,0,.24,3,8.61,8.61,0,0,0,1.82,4,5.52,5.52,0,0,0,4.22,2,12.76,12.76,0,0,0,5.39-1c.35-.15.71-.28,1.15-.45l1.2,2.8-.48.32a14.72,14.72,0,0,1-10.29,2.6c-4.58-.5-7.64-3.19-9.3-7.36a21,21,0,0,1,.16-16.24,10.4,10.4,0,0,1,7.67-6.63,10.26,10.26,0,0,1,8.35,1.33,10.56,10.56,0,0,1,3.73,5.07,20.57,20.57,0,0,1,1.33,8.07A9.7,9.7,0,0,1,1501.5,32.37Zm-5.83-3.63a21,21,0,0,0-.89-5.73,8,8,0,0,0-1.35-2.54c-1.15-1.48-4.71-1.18-5.25.85a42.1,42.1,0,0,0-1.23,4.95,8.91,8.91,0,0,0-.11,2.87Z"/><path class="cls-2" d="M1449.55,32.37l-14.6.18a10.36,10.36,0,0,0,2.1,7,5.45,5.45,0,0,0,4.12,2,13.09,13.09,0,0,0,5.49-1l1.14-.46c.39.91.77,1.78,1.18,2.75-.34.25-.65.51-1,.73a14.66,14.66,0,0,1-10.87,2.07,10.79,10.79,0,0,1-7.74-6.18,19.83,19.83,0,0,1-1.87-10.37,19.65,19.65,0,0,1,1.66-7,10.61,10.61,0,0,1,5.71-5.78,10.91,10.91,0,0,1,9.54.3,9.79,9.79,0,0,1,4.23,5,21.39,21.39,0,0,1,1.55,8.52A8.32,8.32,0,0,1,1449.55,32.37Zm-5.78-3.64c-.09-1-.14-1.84-.25-2.69a12.4,12.4,0,0,0-1.35-4.61,3.34,3.34,0,0,0-4.42-1.67h0l-.18.09a1.87,1.87,0,0,0-1.08,1,20.08,20.08,0,0,0-1.53,6c-.09.73-.13,1.45-.2,2.32Z"/><path class="cls-2" d="M1344.1,15.78c.23.9.44,1.73.66,2.63l1-.63a16.39,16.39,0,0,1,6.61-2A2.52,2.52,0,0,1,1355,17c-.29,2.58-.58,5.2-.88,7.91l-4.76-.19c-.18-1.45-.35-2.82-.52-4.24a6.2,6.2,0,0,0-3,1.06V41.86l2.94.67c0,1-.11,1.94-.16,3h-12.71v-3l2.66-.67V20.48l-3-.39V17Z"/><path class="cls-2" d="M1532.62,45.53c.05-1,.09-2,.14-3l2.64-.65V20.5l-3.12-.38V17l8.66-1.19c.23.9.44,1.73.64,2.49a35.47,35.47,0,0,1,3.67-1.65,31.74,31.74,0,0,1,3.87-.84,2.36,2.36,0,0,1,2.71,1.18c-.28,2.52-.57,5.14-.88,7.88l-4.74-.17c-.18-1.46-.36-2.85-.55-4.4l-3,1V41.86l2.93.67c-.06,1-.12,2-.19,3Z"/><path class="cls-2" d="M1420.5,20.26l-3,1.11V41.86l3,.67-.24,3H1407.5v-3l2.7-.68V20.49l-3.1-.36V17l8.59-1.21c.25.86.49,1.71.73,2.55.84-.43,1.65-.89,2.49-1.29a16.62,16.62,0,0,1,4.95-1.26,2.63,2.63,0,0,1,2.76,1.15c-.27,2.53-.56,5.15-.86,7.92l-4.77-.17C1420.82,23.22,1420.65,21.86,1420.5,20.26Z"/><path class="cls-2" d="M1327.88,10.09v6h5.28c-.12,1.34-.22,2.54-.33,3.78l-4.75.54a4.91,4.91,0,0,0-.1.77V38.52a7.49,7.49,0,0,0,0,1.16,2.2,2.2,0,0,0,2.23,2h3c.11,1.08.22,2.09.32,3.11a6,6,0,0,1-2.4.81,14.8,14.8,0,0,1-5.39.15,5.59,5.59,0,0,1-4.88-5.11,16.87,16.87,0,0,1-.07-1.74V21.46a5.3,5.3,0,0,0-.07-1.05l-3.33-.56c0-1.2.1-2.38.16-3.68l3.76-.18,1.68-5.67Z"/><path class="cls-1" d="M1552.58,43.69a2.51,2.51,0,1,1-2.89-2.07h.42A2.3,2.3,0,0,1,1552.58,43.69Zm-4.21,0a1.75,1.75,0,1,0,1.88-1.61H1550A1.74,1.74,0,0,0,1548.37,43.69Zm1.43,1h-.68v-2a8.39,8.39,0,0,1,1-.06,1.82,1.82,0,0,1,.89.15.47.47,0,0,1,.24.43c0,.19-.21.36-.52.44h0a.62.62,0,0,1,.46.5,2,2,0,0,0,.16.47h-.77a1.06,1.06,0,0,1-.15-.42.35.35,0,0,0-.38-.29h-.23Zm0-1.12h.2c.25,0,.42-.08.42-.23s-.16-.24-.39-.24h-.23Z"/><path class="cls-2" d="M1793.5,39.34a5.55,5.55,0,1,1-5.55-5.55h0A5.57,5.57,0,0,1,1793.5,39.34Z"/><path class="cls-2" d="M1770.15,26.36l13.3-1.38q-2-12.37-14.56-14.1c-12.6-1.72-20.4,4.13-22.46,7.11s-3.09,5.61-3.32,10.43,2.75,9.17,3.78,10.31,5.73,6.76,17.65,6.76,15.81-4.58,17.76-8.82a11.6,11.6,0,0,0,1.15-4.47h-13.07q-.57,5.16-5.84,5.16c-5.27,0-6-4.93-5.73-8.94s-.12-9.28,5.5-9.51Q1769.92,18.67,1770.15,26.36Z"/><path class="cls-2" d="M1744.57,35.29v9.44H1720.8V35h4.49V24.72a4.34,4.34,0,0,0-.79-2.63,4.17,4.17,0,0,0-2.73-1.59,6.51,6.51,0,0,0-5.44,1.18,5.68,5.68,0,0,0-2.28,4.56v8.68c1.54.08,3.06.08,4.6.08v9.78H1694.3V35h4.37V20.3h-4.38V10.52h19.21v6.74c.28-.3.51-.53.72-.77a15.66,15.66,0,0,1,5.33-4.19,15.45,15.45,0,0,1,4.61-1.29,22.75,22.75,0,0,1,8.06.37,11.56,11.56,0,0,1,5.24,2.62,9.14,9.14,0,0,1,2.89,5.23,16.63,16.63,0,0,1,.27,2.82V34.94h4Zm-77.26-24.78h-5.81V0h31.12V10.45h-5.81V34.94h5.8v9.78H1661.5V35h5.79Z"/><path class="cls-1" d="M879,108.47h10.29v15.77l.25-.24c2.81-3.14,6.37-3.84,10.29-2.9,3.76.91,5.86,3.57,6.76,7.21a14.65,14.65,0,0,1,.47,3.61v18.83h-10.3V135a8.94,8.94,0,0,0-.31-2.36,3,3,0,0,0-2.73-2.35,3.39,3.39,0,0,0-3.48,1.52,6.1,6.1,0,0,0-.85,3.39v15.52H879Z"/><path class="cls-1" d="M865.55,124v-2.52h10v29.29h-10V148.1l-.62.67a9.54,9.54,0,0,1-6.65,2.77,13.58,13.58,0,0,1-13.7-9.69c-2-6.06-1.1-11.72,3.15-16.62a12.79,12.79,0,0,1,13.68-3.85,8.84,8.84,0,0,1,3.84,2.48l.18.15Zm-11.9,12.14a6.07,6.07,0,1,0,6.14-6h0a6,6,0,0,0-6.08,5.91s-.06,0-.06.08Z"/><path class="cls-1" d="M810.14,121.43h10.67a.7.7,0,0,1,.77.54q3.15,8,6.29,16.09c.06.14.12.29.22.57.12-.28.21-.46.28-.64q3.15-8,6.29-16a.78.78,0,0,1,.85-.6h10.32c-.09.25-.15.44-.23.62q-8.08,19.52-16.18,39a.78.78,0,0,1-.86.6H818.18c.08-.23.13-.39.2-.55q2-4.77,4-9.55a1.25,1.25,0,0,0,0-1.13l-12-28.37C810.31,121.89,810.25,121.69,810.14,121.43Z"/><path class="cls-1" d="M925,120.7c7,0,12.9,4.11,14.91,10.47,3.15,10-3.38,20.17-14.56,20.36-5.64.1-10.32-2-13.5-6.75-5.79-8.69-1.7-22.12,10.83-23.88C923.44,120.8,924.22,120.77,925,120.7Zm0,9.54a5.91,5.91,0,1,0,5.85,6h0a5.76,5.76,0,0,0-5.57-5.94Z"/><path class="cls-1" d="M942.44,136.48a15.31,15.31,0,0,1,14.85-15.75h1.42c5.54.24,10,2.49,12.94,7.32,5.39,8.95.84,22-11.59,23.35-5.71.62-10.6-1.11-14.31-5.63A14.72,14.72,0,0,1,942.44,136.48Zm15.74-6.24a5.91,5.91,0,1,0,5.83,6v-.05a5.77,5.77,0,0,0-5.61-5.93h0Z"/><path class="cls-1" d="M978.88,135l11-26.58h12.29c-.07.2-.14.38-.21.56l-10.52,25.44a.8.8,0,0,1-.85.6h-11Z"/><path class="cls-1" d="M932.82,163.12v-1.4h6v16.55h-5.94v-1.69a5.76,5.76,0,0,1-3.5,2.06,7.22,7.22,0,0,1-7.38-3,9.94,9.94,0,0,1,.42-11.93,7.23,7.23,0,0,1,7.89-2.16A17.59,17.59,0,0,1,932.82,163.12ZM933,170a3.3,3.3,0,0,0-3.24-3.36h-.16A3.36,3.36,0,1,0,933,170Z"/><path class="cls-1" d="M918.55,178.29h-6.1v-8.84a4.77,4.77,0,0,0-.13-1.19,1.82,1.82,0,0,0-1.66-1.5,1.87,1.87,0,0,0-2.09,1.16,4.76,4.76,0,0,0-.31,1.63v8.69h-6.07V161.71h6v1.79l.33-.35a5.71,5.71,0,0,1,8.06-.53h0a4.07,4.07,0,0,1,.42.41,6.64,6.64,0,0,1,1.49,4v11.26Z"/><path class="cls-1" d="M947.42,161.71v1.69c.12-.07.19-.09.23-.14a5.34,5.34,0,0,1,5.88-1.84,5.13,5.13,0,0,1,4,4.32,8.12,8.12,0,0,1,.22,1.84v10.7h-6.1v-8.87a4.27,4.27,0,0,0-.13-1.18,1.81,1.81,0,0,0-1.71-1.51,1.88,1.88,0,0,0-2.09,1.26,5.28,5.28,0,0,0-.26,1.58v8.68h-6.07V161.71Z"/><path class="cls-1" d="M990.79,171.58H979.36a2.47,2.47,0,0,0,1.13,2,3.4,3.4,0,0,0,4.24-.43.68.68,0,0,1,.87-.21c1.52.61,3,1.19,4.63,1.8a2.49,2.49,0,0,1-.22.43,8.43,8.43,0,0,1-6.76,3.65,10.31,10.31,0,0,1-5-.74,8,8,0,0,1-4.81-6.93,8.87,8.87,0,0,1,4.32-8.73,9.18,9.18,0,0,1,10,.7,8.21,8.21,0,0,1,3,5.81A23.43,23.43,0,0,1,990.79,171.58Zm-5.88-3.49c-.07-1.41-1.27-2.3-2.91-2.24a2.43,2.43,0,0,0-2.56,2.24Z"/><path class="cls-1" d="M887.3,166.58v11.7h-6.07v-11.7h-2.17v-4.89h2.1c.08-.81.11-1.56.24-2.3a6.52,6.52,0,0,1,6.49-5.77,17.55,17.55,0,0,1,3.31.35.6.6,0,0,1,.41.46v4.67c-1.3-.36-2.57-.68-3.66.34a2.54,2.54,0,0,0-.63,2.23h4v4.91Z"/><path class="cls-1" d="M972.28,167.45a13.65,13.65,0,0,0-2.34-.69,5.6,5.6,0,0,0-2.23.21,3.1,3.1,0,0,0-2.12,3.48,3.28,3.28,0,0,0,3,2.82c1.16.14,1.77,0,3.65-.84a2.54,2.54,0,0,1,0,.39v4.56a.61.61,0,0,1-.43.68,9.18,9.18,0,0,1-9-.91c-2.71-1.87-3.67-4.65-3.45-7.85.48-6.86,7.26-9.4,12.35-7.44a.65.65,0,0,1,.51.74C972.27,164.22,972.28,165.84,972.28,167.45Z"/><path class="cls-1" d="M975.14,144.58a6.93,6.93,0,0,1,6.92-6.94h.09a6.63,6.63,0,0,1,6.71,6.55h0v.21a6.88,6.88,0,0,1-6.85,6.93h-.15a6.64,6.64,0,0,1-6.71-6.57h0Z"/><path class="cls-1" d="M899.55,178.3h-6V161.72h6Z"/><path class="cls-1" d="M896.55,153.44a3.35,3.35,0,0,1,3.4,3.32v0h0a3.41,3.41,0,1,1-3.44-3.38h0Z"/><path class="cls-1" d="M703.25,121.25v1.36h3.85L702.5,153l-5.35-31.7H693.3l-4.6,32.45-4.35-31.21h4.35v-1.32H674.9v1.37h3L684,162.5h5l4.18-25.28,4.6,25.24h5l6.09-39.79h4v-1.36Zm-50.11,1.24h4V161h-3.85v1.37h20.26V151.58h-1a34.26,34.26,0,0,1-.87,6.22,6,6,0,0,1-3.61,3.11,31.47,31.47,0,0,1-4,.25V140.77s3.11-.13,4,.37c1.37,1.12,1.49,3.11,1.74,5.35h1V134.43h-1.12a6,6,0,0,1-1.74,4.35c-1.12,1.12-4,.62-4,.62V122.61a37.78,37.78,0,0,1,5.1.13c3,1.49,3.1,4.85,3.48,7.83h1v-9.32H653Zm-6.22,0h3.86v-1.32H637.23v1.37h3.35v38.54h-4v1.37h14.55v-1.37H647c-.07-.11-.07-38.59-.07-38.59Zm-18,0h3.48l-6.1,35.93c-.12,0-6.09-35.93-6.09-35.93h3.61v-1.32H611v1.37h2l7.59,39.79h6.59l7.08-39.79h2v-1.37h-7.09v1.37Zm-20.39,35.06c-1.5,3.36-6.59,3.48-9,3.48V141.39s3.48,0,4.35.5c1.37,1,1.75,3,2,5h1V134.43h-1.12c-.12,1.86-.25,4.1-2,5.34-1,.75-4.35.37-4.35.37V122.61c1.37,0,4.23-.25,5.47.25,3.11,1.49,3.23,5.1,3.48,8.21h1.12v-9.9H589.61v1.37h3.1v38.63h-2.86v1.36h20.52V151.71h-1.12a28,28,0,0,1-.74,5.84Zm-21.64,3.17c-1.74-5.22-2.24-10.44-4.6-15.29-1.49-3-4.72-4.35-7.71-4.6,3.48-.37,7.09-1.74,8.83-5.35,1.12-2.73,1.37-7.21-.37-9.94a9,9,0,0,0-7.48-4.37H559.39v1.37h4v38.54h-4.1v1.25H574V161h-3.61V141.33h.87c1.75.12,4,.74,4.73,2.11,2,3.11,3.61,14.42,4,16.66.12.87,0,1.74.5,2.36h8.82v-1.37a5.6,5.6,0,0,1-2.36-.37ZM570,140V122.49c1.12,0,3.86,0,4.6.5,2.86,3,2.61,8.2,2.49,12.18-.25,1.74-.87,3.86-2.61,4.6A21,21,0,0,1,570,140Zm-24,12h-1.37a24.5,24.5,0,0,1-.38,5.34c-.62,1.49-1.86,3.36-3.6,3.61h-5.22V122.36h4.35V121h-14.7v1.36h3.6v38.55H525v1.37h21C546,159,545.83,155.28,546,152Zm-33.14-30.71h-6.09L500,161h-3.23v1.25h8.58v-1.37h-3.6l2.12-12.56h8l2.48,12.56H510.5v1.37h13.43v-1.37h-2.62c0,.06-8.49-39.66-8.49-39.66Zm-5,25.61h-4L507,127.34l4.22,19.52Zm-12.44-24.37v-1.32H481.25v1.37h3.48v38.54h-3.6v1.37H495.3v-1.37H492V122.49ZM473,160.85c-1.37.74-4,.49-5-.63-2.12-2.48-3.49-6.71-3.73-10.07-.75-7.71-.75-11.44.24-17.53.5-3.48,1.5-7,3.86-9.45,1.49-1.36,4.1-1.12,5.72-.25,3.23,2.12,3.11,6.1,3.36,9.58h1.36V121.06h-1.12c0,.62,0,1.12-.49,1.49-1.12.25-1.74-1.12-2.61-1.37-2.37-1.36-5.72-.87-8.09.38a19,19,0,0,0-9.2,14.92c-.87,9.32.5,19.14,8.21,24.61,2.49,1.12,6,2.49,8.45.63,0,0,2-2,2.74-2s.75,1.36.75,2.24h1.11V151.77H477c-.25,3.42.25,6.15-4.1,9.08Zm-15.54-38.36v-1.32h-8.21v1.37h3.11v27.35l-11-28.72h-9.7v1.37h3.48v38.54h-3.6v1.37h8.82v-1.37h-3.48V128.46l12.93,34.06h4.35V122.74h3.49Zm-36.93-1.24h-6.34L407.31,161h-3.48v1.25h9.32v-1.37h-4l2.11-12.81h7.34l2.61,12.81h-3.73v1.37h12.8v-1.37h-1.86c.11.06-8-39.66-8-39.66Zm-9.08,25.36,3-18.28,3.85,18.28Zm-5.84-24.12v-1.32h-8.45v1.37h3.48v28.35L389.41,121.3h-9.83v1.36h3.49v38.51h-3.61v1.24h9.2V161h-3.73V129.17l12.19,33.32h5.22V122.74h3.35a.42.42,0,0,1-.16-.25Zm-31.46,0h3.61v-1.32h-14.3v1.37h4v38.54h-4.6v1.37H378v-1.37h-3.9Zm-34.31,0H345V161h-5.2v1.37h16.29V161h-4.36V141h3.61c1.86,0,2.24,3.49,2.11,5.35h1.37v-12.7h-1.37c.13,2.11-.37,6.09-2.11,6.09h-3.48V122.36c2.24.13,5.72.25,7.33,2,2.12,2.12,2,5.23,2.24,8.09h1v-11.2H339.76Z"/><g id="layer1"><g id="g3120"><g id="g3108"><path id="path3084" class="cls-1" d="M1109,136.62a7.17,7.17,0,0,0-.45,10.14v0a7,7,0,0,0,1.67,1.35l20.13,13.67-9.72-22.18a7.09,7.09,0,0,0-11.6-3"/><path id="path3086" class="cls-1" d="M1126.37,125.8a7.12,7.12,0,0,0-6.52,7.67,7.27,7.27,0,0,0,.52,2.15l10.1,23.56L1134,134.4c.82-6.16-3.89-9-7.65-8.6"/><path id="path3088" class="cls-1" d="M1135.59,133.45h1.91s1,0,1.16.48c-.75.6-2.8.68-2.53,3.92l3.21,21.33,10-23.63a7.17,7.17,0,0,0-6.07-9.81h-.54a7.08,7.08,0,0,0-7.2,7v.82"/><path id="path3090" class="cls-1" d="M1149,139.82l-9.49,21.86,20.13-13.74a7.1,7.1,0,0,0,2.26-9.77h0a6.57,6.57,0,0,0-1-1.23,7.2,7.2,0,0,0-5.2-2.14c-2.5,0-5.18,1.31-6.73,5.06"/><path id="path3092" class="cls-1" d="M1157.36,151.05l-18.91,13.07h23.28c4.77,0,7.84-4.88,6.48-9.35a7.3,7.3,0,0,0-6.76-5,7.38,7.38,0,0,0-4.09,1.3"/><path id="path3094" class="cls-1" d="M1108.5,164.12h22.93l-18.91-13.07c-4.37-2.78-9.28-1.15-11,3.46a7.31,7.31,0,0,0,7,9.61"/></g><g id="flowRoot3020"><path id="path3029" class="cls-1" d="M1218.77,164.2V119.79h-10.53l-11.68,18.83-11.67-18.78h-10.53v44.41h9.58v-28.8l12.37,18.78h.25l12.5-19v29Z"/><path id="path3031" class="cls-1" d="M1257,151.07v-.13a12.43,12.43,0,0,0-.92-5,10,10,0,0,0-2.73-3.65,16.68,16.68,0,0,0-4.44-2.66,43.53,43.53,0,0,0-6-2q-2.85-.76-4.73-1.33a13.66,13.66,0,0,1-3-1.21,3.7,3.7,0,0,1-1.49-1.42,4.15,4.15,0,0,1-.41-1.87v-.18a3.36,3.36,0,0,1,1.43-2.76,6.9,6.9,0,0,1,4.28-1.11,15,15,0,0,1,5.71,1.17,32.51,32.51,0,0,1,5.84,3.21l5.07-7.36a25.84,25.84,0,0,0-7.52-4.19,26.74,26.74,0,0,0-9-1.46,20,20,0,0,0-6.28.95,14.46,14.46,0,0,0-4.91,2.73,12.54,12.54,0,0,0-3.21,4.22,12.82,12.82,0,0,0-1.14,5.49v.12a13,13,0,0,0,1,5.52,10.12,10.12,0,0,0,3,3.71,17,17,0,0,0,4.63,2.51,54,54,0,0,0,6.09,1.84c1.86.47,3.37.91,4.54,1.33a13.74,13.74,0,0,1,2.72,1.27,3.57,3.57,0,0,1,1.34,1.36,3.94,3.94,0,0,1,.35,1.69V152a3.49,3.49,0,0,1-1.69,3.08,8.46,8.46,0,0,1-4.72,1.11,16.72,16.72,0,0,1-7-1.46,29.22,29.22,0,0,1-6.25-3.93l-5.77,6.91a26.2,26.2,0,0,0,8.88,5.36,29.17,29.17,0,0,0,10,1.75,22.68,22.68,0,0,0,6.6-.92,15.06,15.06,0,0,0,5.13-2.67,12,12,0,0,0,3.37-4.31A13.59,13.59,0,0,0,1257,151Z"/><path id="path3033" class="cls-1" d="M1300.35,164.2V119.79h-9.65v27.35l-20.8-27.35h-9V164.2h9.64V136L1292,164.2Z"/><path id="path3035" class="cls-1" d="M1344.05,152v-.12a10.13,10.13,0,0,0-2.22-7,15.1,15.1,0,0,0-6.09-4,12.18,12.18,0,0,0,2.25-1.52,10,10,0,0,0,1.84-2.06,10.33,10.33,0,0,0,1.75-6v-.12a10.19,10.19,0,0,0-3.91-8.38q-3.9-3.1-10.75-3.11H1306.3V164.1h21.13a28.42,28.42,0,0,0,6.82-.76,15.61,15.61,0,0,0,5.26-2.28,10.27,10.27,0,0,0,3.36-3.81,11.44,11.44,0,0,0,1.18-5.33Zm-12.18-19a3.84,3.84,0,0,1-1.87,3.6,10.13,10.13,0,0,1-5.13,1.11h-9v-9.39h9.64a8.13,8.13,0,0,1,4.76,1.17,4,4,0,0,1,1.65,3.4Zm2.47,17.77a4,4,0,0,1-1.84,3.65,9.35,9.35,0,0,1-5.07,1.17h-11.61v-9.77h11.29q3.81,0,5.52,1.3a4.18,4.18,0,0,1,1.71,3.52Z"/><path id="path3037" class="cls-1" d="M1386.45,157l-6.22-6.28a25.11,25.11,0,0,1-5.23,3.81,13.55,13.55,0,0,1-6.44,1.4,12.21,12.21,0,0,1-9.29-4.13,14,14,0,0,1-2.64-4.44,15.51,15.51,0,0,1-1-5.39v-.13a15.12,15.12,0,0,1,1-5.36,14.12,14.12,0,0,1,2.67-4.41,12.11,12.11,0,0,1,4.09-3,12.27,12.27,0,0,1,5.17-1.08,13.64,13.64,0,0,1,6.06,1.33,23.7,23.7,0,0,1,5.3,3.68l6.21-7.16a26.6,26.6,0,0,0-3.29-2.8,21.21,21.21,0,0,0-3.87-2.15,23,23,0,0,0-4.67-1.4,28.45,28.45,0,0,0-5.68-.51,23.83,23.83,0,0,0-9.39,1.81,22.16,22.16,0,0,0-7.29,5,22.69,22.69,0,0,0-4.76,7.3,23.27,23.27,0,0,0-1.71,8.91v.13a23.42,23.42,0,0,0,1.71,8.94,22.24,22.24,0,0,0,4.76,7.27,22.54,22.54,0,0,0,7.23,4.85,23.14,23.14,0,0,0,9.07,1.78,28.6,28.6,0,0,0,5.84-.54,20.72,20.72,0,0,0,8.82-4.1,31.68,31.68,0,0,0,3.55-3.3Z"/></g></g></g><path class="cls-1" d="M1569.41,111.92v4.24h.18a9.57,9.57,0,0,1,4.12-3.85,11.9,11.9,0,0,1,5.18-1.21,14.38,14.38,0,0,1,5.51.91,8.06,8.06,0,0,1,3.38,2.53,9.63,9.63,0,0,1,1.74,4,24.05,24.05,0,0,1,.5,5.15v18.73h-8.36v-17.2a10.63,10.63,0,0,0-1.18-5.62c-.78-1.24-2.18-1.86-4.18-1.86a6.06,6.06,0,0,0-5,2c-1.08,1.32-1.53,3.58-1.53,6.68v16h-8.36v-30.5Z"/><path class="cls-1" d="M1601.5,135.06a8.61,8.61,0,0,0,9.78.56,5.26,5.26,0,0,0,2.24-2.68h7.36q-1.77,5.48-5.42,7.83a15.88,15.88,0,0,1-8.83,2.35,17.51,17.51,0,0,1-6.48-1.15,13.47,13.47,0,0,1-4.89-3.26,14.85,14.85,0,0,1-3.09-5.07,18.35,18.35,0,0,1-1.09-6.48,17.64,17.64,0,0,1,1.12-6.35,14.75,14.75,0,0,1,8.1-8.49,15.8,15.8,0,0,1,6.33-1.23,14.45,14.45,0,0,1,6.77,1.5,13.57,13.57,0,0,1,4.74,4,16.46,16.46,0,0,1,2.68,5.77,21.8,21.8,0,0,1,.59,6.78h-22C1599.55,131.87,1600.25,133.85,1601.5,135.06Zm9.46-16a5.92,5.92,0,0,0-4.57-1.65,7.34,7.34,0,0,0-3.33.68,6.09,6.09,0,0,0-3.23,3.79,9.69,9.69,0,0,0-.39,2h13.61a9.78,9.78,0,0,0-2-4.88Z"/><path class="cls-1" d="M1648.73,142.36l-5.41-20.44h-.11L1638,142.36h-8.7l-9.62-30.44h8.83l5.6,20.67h.12l5.07-20.67h8.13l5.18,20.61h.12l5.57-20.61h8.6l-9.6,30.45Z"/><path class="cls-1" d="M1673.67,134.79a4.77,4.77,0,0,0,1.44,1.59,6.15,6.15,0,0,0,2,.91,9.6,9.6,0,0,0,2.39.3,8.27,8.27,0,0,0,1.85-.21,5.89,5.89,0,0,0,1.77-.65,4.15,4.15,0,0,0,1.33-1.17,3.15,3.15,0,0,0,.53-1.86c0-1.25-.84-2.2-2.51-2.83a51.65,51.65,0,0,0-7-1.88,33.72,33.72,0,0,1-3.57-1,11.7,11.7,0,0,1-3.09-1.47,7.26,7.26,0,0,1-2.18-2.3,6.48,6.48,0,0,1-.82-3.39A9.08,9.08,0,0,1,1667,116a8.45,8.45,0,0,1,3-3,13.07,13.07,0,0,1,4.24-1.53A27.14,27.14,0,0,1,1679,111a25,25,0,0,1,4.8.47,12.63,12.63,0,0,1,4.15,1.59,9.76,9.76,0,0,1,3,3,9.87,9.87,0,0,1,1.44,4.69h-8a3.65,3.65,0,0,0-1.82-3.27,8.32,8.32,0,0,0-3.89-.86,13.08,13.08,0,0,0-1.53.09,5.17,5.17,0,0,0-1.5.38,3.06,3.06,0,0,0-1.15.86,2.26,2.26,0,0,0-.47,1.5,2.3,2.3,0,0,0,.82,1.83,6.55,6.55,0,0,0,2.15,1.14,28.2,28.2,0,0,0,3,.8c1.13.23,2.29.49,3.47.76a36.89,36.89,0,0,1,3.56,1,12,12,0,0,1,3.09,1.57,7.4,7.4,0,0,1,2.18,2.41,7.1,7.1,0,0,1,.83,3.56,9.26,9.26,0,0,1-4.36,8.31,12.94,12.94,0,0,1-4.45,1.73,24.82,24.82,0,0,1-5.09.5,24.36,24.36,0,0,1-5.18-.53,13.81,13.81,0,0,1-4.51-1.76,9.67,9.67,0,0,1-4.62-8.37h8A4.53,4.53,0,0,0,1673.67,134.79Z"/><path class="cls-1" d="M1560.1,170.48v4.12h-4.2v-4.12Z"/><path class="cls-1" d="M1571.66,156.39a4.37,4.37,0,0,0-2.51.69,5.41,5.41,0,0,0-1.65,1.75,7.8,7.8,0,0,0-.9,2.38,13.1,13.1,0,0,0-.26,2.57,12.34,12.34,0,0,0,.26,2.5,7.67,7.67,0,0,0,.86,2.31,5,5,0,0,0,1.6,1.69,4.36,4.36,0,0,0,2.46.66,4.6,4.6,0,0,0,3.45-1.25,6,6,0,0,0,1.52-3.36h6a10.25,10.25,0,0,1-3.52,6.89,11.29,11.29,0,0,1-7.42,2.38,12.49,12.49,0,0,1-4.68-.86,10.48,10.48,0,0,1-3.63-2.39,11.24,11.24,0,0,1-2.33-3.67,12.66,12.66,0,0,1-.83-4.68,15.4,15.4,0,0,1,.77-4.9,10.8,10.8,0,0,1,2.26-3.91,10.31,10.31,0,0,1,3.65-2.57,12.37,12.37,0,0,1,4.92-.93,14.65,14.65,0,0,1,3.89.53,10.41,10.41,0,0,1,3.34,1.6,8.64,8.64,0,0,1,2.39,2.68,8.48,8.48,0,0,1,1.06,3.81h-6a4.19,4.19,0,0,0-4.43-3.94h0Z"/><path class="cls-1" d="M1583.32,158.75a10.37,10.37,0,0,1,6.06-6.2,14,14,0,0,1,9.69,0,10.34,10.34,0,0,1,6.09,6.2,15,15,0,0,1,0,9.86,10.9,10.9,0,0,1-2.37,3.76,10.25,10.25,0,0,1-3.72,2.39,14.39,14.39,0,0,1-9.69,0,10.26,10.26,0,0,1-3.69-2.39,10.9,10.9,0,0,1-2.37-3.76,15,15,0,0,1,0-9.86Zm5.67,7.6a7.05,7.05,0,0,0,.9,2.33,4.83,4.83,0,0,0,1.69,1.64,5.17,5.17,0,0,0,2.64.62,5.24,5.24,0,0,0,2.66-.62,4.88,4.88,0,0,0,1.71-1.64,7.05,7.05,0,0,0,.9-2.33,13.71,13.71,0,0,0,0-5.34,6.69,6.69,0,0,0-.9-2.33,4.86,4.86,0,0,0-4.37-2.29,5.09,5.09,0,0,0-2.64.64,5.22,5.22,0,0,0-1.69,1.65,6.5,6.5,0,0,0-.9,2.33,13.38,13.38,0,0,0-.26,2.68,13.23,13.23,0,0,0,.24,2.66Z"/><path class="cls-1" d="M1613.22,152.31v3.07h.09a8.7,8.7,0,0,1,3-2.72,8.08,8.08,0,0,1,4-1,9,9,0,0,1,3.93.84,5.55,5.55,0,0,1,2.7,2.94,9.74,9.74,0,0,1,2.75-2.64,7.25,7.25,0,0,1,4.1-1.14,12.16,12.16,0,0,1,3.34.44,6.82,6.82,0,0,1,2.64,1.41,6.63,6.63,0,0,1,1.72,2.52,10.48,10.48,0,0,1,.61,3.76V175h-6.24V162.15a15.4,15.4,0,0,0-.09-2.15,4.71,4.71,0,0,0-.48-1.76,2.92,2.92,0,0,0-1.17-1.19,4.29,4.29,0,0,0-2.08-.44,4.07,4.07,0,0,0-2.13.51,3.68,3.68,0,0,0-1.28,1.32,5.19,5.19,0,0,0-.61,1.84,13.28,13.28,0,0,0-.16,2.09V175h-6.24V160.28a5.68,5.68,0,0,0-.37-1.82,2.83,2.83,0,0,0-1.1-1.34,4.17,4.17,0,0,0-2.27-.51,5.13,5.13,0,0,0-1.16.2,3.77,3.77,0,0,0-1.41.75,4.33,4.33,0,0,0-1.16,1.58,6.43,6.43,0,0,0-.48,2.7V175h-6.35V152.31Z"/><path class="cls-1" d="M1647.83,170.92V175h-4.16v-4.08Z"/><path class="cls-1" d="M1650.65,155.65a7.51,7.51,0,0,1,2.46-2.33,10.39,10.39,0,0,1,3.37-1.25,18.86,18.86,0,0,1,3.75-.38,25.19,25.19,0,0,1,3.47.24,11,11,0,0,1,3.21,1,6.23,6.23,0,0,1,2.37,1.95,5.44,5.44,0,0,1,.93,3.32V170a26.39,26.39,0,0,0,.17,2.95,5.37,5.37,0,0,0,.62,2.11h-6.33a9.52,9.52,0,0,1-.29-1.08,10.4,10.4,0,0,1-.15-1.12,8.3,8.3,0,0,1-3.51,2.15,14.17,14.17,0,0,1-4.14.62,11.29,11.29,0,0,1-3-.4,6.94,6.94,0,0,1-2.46-1.23,5.85,5.85,0,0,1-1.65-2.11,7.21,7.21,0,0,1-.59-3,6.65,6.65,0,0,1,.68-3.19,5.83,5.83,0,0,1,1.76-2,8,8,0,0,1,2.46-1.12c.92-.24,1.85-.44,2.79-.59s1.86-.26,2.77-.35a16.51,16.51,0,0,0,2.42-.4,4.12,4.12,0,0,0,1.67-.77A1.68,1.68,0,0,0,1664,159a3.29,3.29,0,0,0-.33-1.6,2.43,2.43,0,0,0-.88-.92,3.42,3.42,0,0,0-1.28-.44,8.47,8.47,0,0,0-1.51,0,4.72,4.72,0,0,0-2.9.79,3.52,3.52,0,0,0-1.23,2.63h-6.24A7.24,7.24,0,0,1,1650.65,155.65Zm12.33,8.81a9.62,9.62,0,0,1-1.28.33c-.45.09-.93.16-1.42.22s-1,.13-1.5.22a9.3,9.3,0,0,0-1.38.35,4,4,0,0,0-1.19.59,2.72,2.72,0,0,0-.81,1,3,3,0,0,0-.31,1.45,2.82,2.82,0,0,0,.31,1.4,2.32,2.32,0,0,0,.83.9,3.4,3.4,0,0,0,1.23.46,7.83,7.83,0,0,0,1.45.14,5.57,5.57,0,0,0,2.86-.62,4.12,4.12,0,0,0,1.49-1.47,4.68,4.68,0,0,0,.6-1.74,13,13,0,0,0,.11-1.4V164a3.24,3.24,0,0,1-1,.54Z"/><path class="cls-1" d="M1687.56,175v-3.17h-.13a7.07,7.07,0,0,1-3.07,2.86,9.24,9.24,0,0,1-3.87.88,10.85,10.85,0,0,1-4.11-.66,5.88,5.88,0,0,1-2.53-1.87,7.4,7.4,0,0,1-1.29-2.94,18.48,18.48,0,0,1-.38-3.85v-14h6.24v12.83a8,8,0,0,0,.88,4.2,3.42,3.42,0,0,0,3.12,1.38,4.31,4.31,0,0,0,3.69-1.52c.76-1,1.15-2.67,1.15-5V152.31h6.24V175Z"/><rect class="cls-1" x="1501.51" y="103.45" width="12.88" height="13.51" rx="1.91"/><rect class="cls-1" x="1501.51" y="162.84" width="12.88" height="13.51" rx="1.91"/><rect class="cls-1" x="1471.5" y="135.9" width="13.51" height="12.88" rx="1.91"/><rect class="cls-1" x="1530.9" y="135.9" width="13.51" height="12.88" rx="1.91"/><rect class="cls-1" x="1480.21" y="155.68" width="13.51" height="12.88" rx="1.91" transform="translate(320.88 1098.92) rotate(-45)"/><rect class="cls-1" x="1522.19" y="113.68" width="13.51" height="12.88" rx="1.91" transform="translate(362.88 1116.31) rotate(-45)"/><rect class="cls-1" x="1522.51" y="155.36" width="12.88" height="13.51" rx="1.91" transform="translate(333.19 1128.61) rotate(-45)"/><rect class="cls-1" x="1480.51" y="113.37" width="12.88" height="13.51" rx="1.91" transform="translate(350.57 1086.62) rotate(-45)"/><path class="cls-1" d="M788.17,20.93l-4.54,3,1.55,1.33V42.89a2.81,2.81,0,0,1-3,2.67h-1v-22l-3.89-2.46-4.91,3.16.22.45s.88-.56,1.11-.67c0,0,1.77,1.67,1.77,3.22V45.44c-2,.55-4,2.21-4,5.87a4.74,4.74,0,0,0,4.1,4.33,23.87,23.87,0,0,0,5.66-.44,14.77,14.77,0,0,1,3.32-.23,4.34,4.34,0,0,1,3.44,1.22l.45.45a4.33,4.33,0,0,0,1-2.55,4,4,0,0,0-2.1-3.77,7,7,0,0,0-3.66-.67,6,6,0,0,0-1.11.11,16.77,16.77,0,0,1-2.55.22c-1.22.11-2.55.34-3.44.45a6,6,0,0,1-1.11.11A2.31,2.31,0,0,1,774,50a1.3,1.3,0,0,1-.45-1.11c.12-1.55,2.11-2.21,2.67-2.32h.66a35.9,35.9,0,0,0,6.54.66,8.28,8.28,0,0,0,2.78-.55,7.17,7.17,0,0,0,2.48-1.57,6.24,6.24,0,0,0,1.55-1.88,4.86,4.86,0,0,0,.66-2.55V22.92c-.89-.71-1.81-1.38-2.77-2"/><path class="cls-1" d="M790.72,23l1.67-1"/><path class="cls-1" d="M831.31,42.66l-1,.67s-.77-.67-.88-.78V23.15l-3.33-2.22-6.1,4-.22-.33a6.68,6.68,0,0,0-2.66-3.44L811.35,25l.22.33a6.49,6.49,0,0,1,1-.55,7.12,7.12,0,0,1,1.55,3V42.55l-1.55,1.33,4.44,3L821.44,44l-1.55-1.33V26.36l1.55-1,2.22,2.44V43c0,1.77,1.44,3.1,2.44,3.88l5.4-3.55-.22-.67"/><path class="cls-1" d="M829.09,23.37l1.56-1M713,43.77l1.56-1"/><path class="cls-1" d="M724.74,42.89s-1.44.88-1.67,1l-3.21-2.33v-7.2L727.73,29l-4.54-8.31-9.43,6.21V43c1.77,1.22,5.65,3.55,5.65,3.55l5.33-3.46ZM720,24.59l3.66,6.32L720,33.35V24.59"/><path class="cls-1" d="M832.42,43.88l1.55-1"/><path class="cls-1" d="M955.41,21.59s-4,2.66-4.77,3.11a9.09,9.09,0,0,0-2.88-3.88l-5.55,3.66.22.33a8.54,8.54,0,0,0,.78-.56l.33.23c.67.66,1,1.11,1,1.44V41.55l-1.66,1.34,4.54,3.54s4.88-3.43,4.77-3.32l-1.77-1.56V26.14l1-.67,2.22,2.89s-.22.33-.33.55a3.76,3.76,0,0,0-.89,2.22c0,.33.45,1.33,1.11,1.33h.11a3.15,3.15,0,0,0,1-.22l.22-.11h-.22a5.37,5.37,0,0,1-.78-.33h-.11a1.94,1.94,0,0,1-.55-1,3.34,3.34,0,0,1,1-2,25.32,25.32,0,0,1,3.8-3.21l-2.55-4"/><path class="cls-1" d="M1154.69,24.81l1.55-1m-17.3,20,1.56-1"/><path class="cls-1" d="M767.1,41.55A32,32,0,0,0,757.5,37h-.11l3.55-5.32c4.55,1,7.65,3.43,7.65,6.09A6.15,6.15,0,0,1,767.1,41.55Zm-8.21-17.3c-.66-.11-2.66-.44-3.1-.55-1.66-.33-9.76-2.77-9.76-6.32,0-4.1,5.21-4.1,7.76-4.1.56,0,6.44.55,9.32,4.32-.11.22-3.55,5.55-4.22,6.65Zm17.75-5.43a3.15,3.15,0,0,0,.89-1.66,2.31,2.31,0,0,0-.56-1.44,1.94,1.94,0,0,0-1.66-.67h-.45c-1.77,0-3.66,1.11-5.65,3.11a21.71,21.71,0,0,0-3.55,4.65c-.89,1.44-1.33,2.11-1.55,2.44a31.93,31.93,0,0,1-4.22-.77c.56-1,2.33-4,4.33-6.88a46.77,46.77,0,0,1,4.1-5,1.31,1.31,0,0,1,.44-.33c.12-.11.34-.11.34-.22s-.22-.34-.22-.34a.4.4,0,0,0-.34.11c-.11.12-.33.12-.55.12a2.25,2.25,0,0,1-1.22-.78,13.81,13.81,0,0,0-9.21-3.55c-8.42,0-13.41,7.1-13.3,11.87,0,3,.55,6.21,2.1,7.54s4,2.44,8.43,3.44l.33.11-.66.77a5.87,5.87,0,0,1-4.22,2,3.67,3.67,0,0,1-2.55-.89h-.11a10.49,10.49,0,0,0,.78,1.22,2.12,2.12,0,0,0,1.33.89,4.27,4.27,0,0,0,1.55-.11A8.94,8.94,0,0,0,755,31.79l1-1.11,3.11.55c.33.11.66.11,1,.22l-1.33,2c-1.66,2.44-2.21,3.22-2.21,3.22a14.11,14.11,0,0,1-1.45-.23,21.55,21.55,0,0,0-4.32-.22c-3.88,0-9.09,1.33-12.31,4.55a9.43,9.43,0,0,0-1.66,2.11,8,8,0,0,0-1.12,4.21c0,1.89,1.22,4.21,4.88,4.21,4.77,0,9-4.54,11.2-6.87l.33-.45c.67-.66,1-1.22,1.22-1.44a40.93,40.93,0,0,1,10.31,4.77A49.41,49.41,0,0,0,768.5,41c1.11-1.66,3.66-5.43,3.77-8.32s-2.55-6.21-7.43-7.21a11,11,0,0,1,1.22-1.88c2-3.11,3.77-6.32,7.66-6.32a2.72,2.72,0,0,1,2.88,1.55Zm-28.5,28.06a22.65,22.65,0,0,1-2.77,2A10.14,10.14,0,0,1,742.5,50a5.23,5.23,0,0,0-.77.23,4.55,4.55,0,0,1-1.22.11H740c-2-.23-3.1-1.33-3.1-3,0-4.43,7.43-5.77,10.09-5.77h.56a23.2,23.2,0,0,1,4.55.56h.55a31.38,31.38,0,0,1-3.6,3.87,3.39,3.39,0,0,1-.88.89M692.17,36c-3.43,4.21-6.54,5.54-7,5.66v-22c3.88-.22,6.65-2.44,6.65-6.1a5.21,5.21,0,0,0-.33-1.66,5.26,5.26,0,0,1-4.1,1.77c-2.78,0-5.88-.89-9.1-1.77A36.66,36.66,0,0,0,668,9.9c-5,.11-10.76,2.44-10.76,9a10.83,10.83,0,0,0,5.55,8.76h.11a12,12,0,0,0-.89,3.88c0,6.33,3.88,15.86,15,15.86a14.84,14.84,0,0,0,7.32-1.77A15.93,15.93,0,0,0,689,41.76,19.32,19.32,0,0,0,692.13,36Zm-18.29,5.21a2,2,0,0,0,.44-.33c3.66-2.44,5.43-4.66,5.43-6.88V19.15a17.05,17.05,0,0,0,4.44.56V42a14.06,14.06,0,0,1-10.35-.78Zm.33-3.66a6.55,6.55,0,0,1-1.11,3.22l-.33-.22c-3.77-2.44-5.66-7.21-5.88-12.31-.22-3.66,1.77-8.54,4.55-11.54a14.84,14.84,0,0,1,2.66.89v20Zm-3.59-21.07a33.85,33.85,0,0,0-7.54,10.65l-.22-.11c-1.67-.78-2.44-2.89-2.44-4.66-.22-4.33,2.88-6.21,7-6.21a19.32,19.32,0,0,1,3.22.33m314,4.22c-.11.11-5.43,3.66-5.43,3.66l.22.44a10.23,10.23,0,0,0,.89-.56l.33.23c.67.66.89,1.11.89,1.44V43.55l2.88,3,5.55-3-.45-.55-.77.44L987.42,42V23.15s-2.67-2.33-2.78-2.44m-3.21-6.21L985,11.72l3.1,3-3.58,2.55-3.1-2.77M862.81,20.82l-4.55,3,1.55,1.33V42.77a2.81,2.81,0,0,1-2.93,2.68h-1v-22l-3.88-2.55-5,3.21.22.45s.89-.56,1.11-.67c0,0,1.77,1.67,1.77,3.22V45.66c-2,.55-4,2.11-4,5.76a4.74,4.74,0,0,0,4.11,4.33,23.82,23.82,0,0,0,5.65-.44,23.2,23.2,0,0,1,3.33-.34,4.38,4.38,0,0,1,3.44,1.22l.44.45a4.33,4.33,0,0,0,1-2.55A4.06,4.06,0,0,0,862,50.32a7,7,0,0,0-3.66-.67,6,6,0,0,0-1.11.11,16.77,16.77,0,0,1-2.55.22c-1.33.11-2.55.34-3.44.45a6,6,0,0,1-1.11.11,2.7,2.7,0,0,1-1.66-.56,1.46,1.46,0,0,1-.55-1.11c.11-1.55,2-2.21,2.66-2.32h.91a35.9,35.9,0,0,0,6.54.66,8.75,8.75,0,0,0,2.77-.55,7.1,7.1,0,0,0,2.44-1.57,5.87,5.87,0,0,0,1.55-1.88,4.75,4.75,0,0,0,.67-2.55V22.92c0-.33-2.66-2.1-2.66-2.1m186.08,11.09a4.18,4.18,0,0,1,1.22.11.9.9,0,0,1,.56.55c.11.11.11,5.66.11,5.66a3.31,3.31,0,0,1-.28,1.86,13.44,13.44,0,0,0,5.21-4.54c.89-1.67.78-5.1.66-8.65-.11-4.11-.22-8.65,1.11-12.09a19.58,19.58,0,0,0-3.66,3,10.29,10.29,0,0,0-2.32,3,17.53,17.53,0,0,0-.67,5.76c-6.32.67-7.54,3.55-7.43,6.1,0,.11.11.56.11.89l.11.33c1.22-1.55,3-2,5.32-2m-5.44-17.51c.22,0,1.33.23,3.77.78,1.33.33,3,.67,3.22.67h1.33c1.33,0,4.21-1.67,7.65-4.55l.55-.44a7.35,7.35,0,0,1-2.77.66,19.46,19.46,0,0,1-5-1.11,18,18,0,0,0-5.65-1.22c-3.89,0-6.44,2.33-6.44,5.77a4.17,4.17,0,0,0,.89,2.44,3.15,3.15,0,0,1-.22-1c.11-1.22,1-2,2.66-2m29-6.87a5.53,5.53,0,0,1,2.66,2.44c-1.89,1.33-4.33,3.21-5.1,3.66-1.45-1.66-3.33-3.88-4.77-4a5.54,5.54,0,0,0-1.22.11,1,1,0,0,0-.45.88V23.48L1069,20l4.32,4.33V38.78c0,4.11-2.88,8.43-8.54,12.2a17.83,17.83,0,0,0,8.65.22c-2.1,3.11-4.43,4.66-7.09,4.66a5.24,5.24,0,0,1-1.56-.33,8.85,8.85,0,0,0-5.33-.44,23,23,0,0,0,5.77-6.32,13.76,13.76,0,0,0,2-7.09V27.58l-3.88-2.77v1.55c0,3.66,0,6.88-.77,8.54-.67,1.33-3.11,3.44-5.22,4.55a3.73,3.73,0,0,0,.34-1.89V19.26c0-.33.11-1.88.11-2.21a9.4,9.4,0,0,1,4.54-7.43c2.78-2,5.11-2.78,6.88-2.78a7.21,7.21,0,0,1,3.1.67M712,43.88c-.33.34-3.1,2.22-3.88,2.89a9.38,9.38,0,0,0-2.55,2.55,5.56,5.56,0,0,0-.88,2.88,1.58,1.58,0,0,0,.33,1,3.33,3.33,0,0,0,2.11.78h.66a1.48,1.48,0,0,0,.78-.12V54a1.76,1.76,0,0,1-1,1,3.47,3.47,0,0,1-1.44.45,2.6,2.6,0,0,1-2.56-2.64h0v-.14c0-1.66,2.1-4.54,3.43-5.87,0,0-2.44-2-2.44-3.55V27.36l-2.21-2.44-1.56,1V42.33c.11.11,1.56,1.33,1.56,1.33l-4.44,3-4.55-3,1.56-1.33V15.38c0-1.33-.11-3.21-.56-3.77a2.78,2.78,0,0,0-1.11-.77,2.27,2.27,0,0,1,2.33-1.75,4.08,4.08,0,0,1,1.78.45c.44-.89,1.33-2.44,3.1-2.44a2.9,2.9,0,0,1,1.44.55c-1.33,1.44-1.22,4.66-1.22,6.54V24.92l6.1-4,3.55,2.33V40.89a5.32,5.32,0,0,0,1.66,3m425.52-1.23.22.34-5.54,3.55-4.33-3,1.45-1.33V14.72c0-1.33-.11-3.22-.56-3.77a2.71,2.71,0,0,0-1.11-.78A2.25,2.25,0,0,1,1130,8.4a3.84,3.84,0,0,1,1.66.44c.78-.67,1.45-1.89,3.33-1.89a3,3,0,0,1,1.44.56,5.6,5.6,0,0,0-1.11,3.66c-.11,7.54,0,31.38,0,31.38l1.22,1.11,1-1"/><path class="cls-1" d="M710.1,23.37l1.55-1m97.59,2.33,1.56-1M793.5,43.55l1.55-1m70.31-19.63,1.55-1m72.86,2.44,1.55-1M924,44l1.56-1M987,23.25l1.56-1m-8.21,22,1.55-1m45.47-18.74,1.55-1m94.6.22,1.55-1"/><path class="cls-1" d="M1140.05,10.39v7.43c1.11,1.11,3.77,3.55,5,4.66a13.7,13.7,0,0,1-5.1,2.66c-.11,0,.22.56.22,1.11V43l5,3.77a26.89,26.89,0,0,1,9.76-4.22v-18Zm6.32,13.31,3,2.88V43.22l-3.44-2.44V24.14l.44-.44m-210-3a43.65,43.65,0,0,1-11.31,4.65c-.11,0,.22.56.22,1.11V43.22l5,3.77A26.88,26.88,0,0,1,940,42.77V24.14Zm-5,3.54,3.13,3.34V43.22l-3.44-2.44V24.48l.33-.23m-136.74-14v7.43c1.11,1.11,3.77,3.55,5,4.66a14.73,14.73,0,0,1-5.1,2.66c-.11,0,.23.56.23,1.11V42.89l5,3.77a26.63,26.63,0,0,1,9.72-4.22v-18Zm6.21,13.31,3,2.88V43.09l-3.44-2.44V24l.44-.44"/><path class="cls-1" d="M1124.31,43.44l1.55-1"/><path class="cls-1" d="M952.08,43.09l1.11-.78"/><path class="cls-1" d="M1124.31,42.89a2.55,2.55,0,0,1-.56-1.45v-18c-.33-.33-3-2.77-3-2.77l-4.44,3.66-3.43-3.24-4.38,3.5,3.1,3.44c-.44.66-1.77,3.21-.22,5.21.14.19.28.37.44.55l-.44.11a7.48,7.48,0,0,0-4.88,6.32c0,1.89.89,5.11,3.55,6.44l7.87-4.88v.55a8.84,8.84,0,0,0,2.22,4.44l4.66-3.33Zm-6.66-2.33-3.77,2.33a6.26,6.26,0,0,1-2.55-2.55,6.93,6.93,0,0,1-.78-3.22,3,3,0,0,1,1.22-2.55c.23-.11.56-.22.78,0,1.44,1.11,3,1.22,5,1.22l.11,4.77Zm-1.33-15.31,1.22,1.33V34.9c-2.11.11-3.77-.33-4.55-1.11-3.21-3-.33-6.87,3.33-8.54m-138,17.41-1,.67s-.78-.67-.89-.78V23.15l-3.33-2.22L967,25l-.22-.33a7.69,7.69,0,0,0-2.66-3.55L958.35,25l.22.44,1-.66a7.75,7.75,0,0,1,1.55,3V42.55l-1.55,1.33,4.44,3L968.5,44,967,42.66V26.36l1.55-1,2.22,2.44V43c0,1.77,1.44,3.1,2.44,4l5.43-3.55-.22-.78"/><path class="cls-1" d="M976.15,23.37l1.66-1"/><path class="cls-1" d="M1010.08,42.66l-1,.67-.89-.78V23.15l-3.32-2.22-6.1,4.1-.22-.33a7.69,7.69,0,0,0-2.66-3.55L990.12,25l.22.44,1-.66a7.82,7.82,0,0,1,1.55,3V42.55l-1.55,1.33,4.43,3,4.44-2.89-1.55-1.33V26.36l1.55-1,2.22,2.44V43c0,1.77,1.44,3.1,2.44,4l5.43-3.55-.22-.78"/><path class="cls-1" d="M1008,23.37l1.56-1"/><path class="cls-1" d="M844.4,42.89l-1.67,1-3.23-2.34v-7.2L847.37,29l-4.43-8.31L833.5,26.9V43c1.77,1.22,5.66,3.55,5.66,3.55l5.34-3.46-.11-.22Zm-4.77-18.3,3.66,6.32-3.66,2.44V24.59"/><path class="cls-1" d="M1075.4,43.88l1.55-1"/><path class="cls-1" d="M1087.5,43l-1.67,1s-3.1-2.32-3.21-2.32V34.46l7.88-5.37-4.43-8.31L1076.64,27V43.1c1.77,1.22,5.66,3.55,5.66,3.55l5.43-3.44Zm-4.88-18.3,3.66,6.32-3.66,2.44V24.7m21.51-3.11s-4,2.66-4.77,3.11a9,9,0,0,0-2.88-3.88l-5.54,3.66.22.33a8.39,8.39,0,0,0,.77-.56l.34.23c.66.66,1,1.11,1,1.44V41.55l-1.66,1.34,4.55,3.54s4.88-3.43,4.77-3.32l-1.78-1.56V26.14l1-.67,2.22,2.89s-.22.33-.33.55a3.7,3.7,0,0,0-.89,2.22c0,.33.44,1.22,1.11,1.22h.11a3.45,3.45,0,0,0,1-.22l.22-.11h-.22a5.37,5.37,0,0,1-.78-.33h-.09a1.89,1.89,0,0,1-.56-1,3.39,3.39,0,0,1,1-2,25.76,25.76,0,0,1,3.77-3.22l-2.55-3.88"/><path class="cls-1" d="M1100.68,43.09l1.11-.78"/><path class="cls-1" d="M1018.06,24.48l4,3.66V41.55l-1.22,1h-.11a6.42,6.42,0,0,1-3.23-4.46V24.81Zm9.65,15.61V24.37s-2.88-2.55-4-3.77c-1,.77-6.76,3.32-12.31,5,.22.22.56.66.56.66V36a18.72,18.72,0,0,0,.55,5.43,7.84,7.84,0,0,0,3.55,4.44l.44.22-9.09,7.65a3.38,3.38,0,0,1,.11,1,3,3,0,0,0,.78-.22,7.6,7.6,0,0,1,3.54-.78c2.44,0,5.11,1.67,6.44,2.44a2.4,2.4,0,0,1,.55.34c.78-.23,3.66-2.44,6.21-4.77a36.4,36.4,0,0,0,3.56-3.68,5.65,5.65,0,0,0,1.55-2.89,3.68,3.68,0,0,0-1.22-2.32A5,5,0,0,1,1027.71,40.09Zm-4.21,12.22-.78-.44c-1.77-1-3.55-2-5.54-2h-.56c-.66.11-1.66.22-2.55.45l-.33-.67,7.76-6.56a14.08,14.08,0,0,1,2.66,3.1,5.18,5.18,0,0,1,.78,2.89,4.15,4.15,0,0,1-1.44,3.21M885.21,18.6a3.27,3.27,0,0,1-1.11-2.11c0-1.44,1.22-3,3.55-3a23.41,23.41,0,0,1,3.21.55c.67.11,1.45.33,1.56.33,1.88,0,4.88-2,6.76-4l.11-.11h-.11a11.18,11.18,0,0,1-4.1-1,10,10,0,0,0-4.22-1C887.2,8.26,883,11,883,14.8c0,.77.78,3.1,2.22,3.77M894,42.19a10.69,10.69,0,0,1-3.33-.33c-.8-.19-1.62-.34-2.44-.45h-1.11c-4.32,0-5.76,3.89-5.76,6.21,0,4.11,1.88,8.54,7.21,8.54,1.55,0,5-.88,5-4.1,0-.11-.34-2-1.22-2h-.67c.11.56.55,1.45.55,1.78,0,2.11-2.88,3.21-4.1,3.21-2.88,0-5.54-1.66-5.54-5.21,0-1.88,1-4,3.21-4,2,0,4.44,1.22,6.32,1.22,4.44-.11,5.33-3,5.44-9-.22.88-1.78,4.1-3.55,4.1m29.17.11a2.25,2.25,0,0,1-.89.44,1.82,1.82,0,0,1-.56-.22A4,4,0,0,1,920,39.28V16.09a4.39,4.39,0,0,1,.89-2.77V13.2a21.21,21.21,0,0,1-2-1.66c-1.33-1.11-3.21-2.55-4.21-3.33,0,0-5.33,4.33-5.66,4.66l-2.44-2c-1-.89-2.55-2.11-3-2.44-.78.44-11.87,9.87-11.87,9.87v7.87h-.33c-6.21.78-6.66,5.55-6.66,7,0,.22.23.88.34,1.44v.11l.11-.11a7.27,7.27,0,0,1,1.66-2,5.35,5.35,0,0,1,2.44-1c2-.22,2.11-.11,2.22,0l.11.12v8.36a2.37,2.37,0,0,1-.44,1.67c2.1-1.11,4.65-3.22,5.32-4.66.89-1.78.78-1.78.78-5.43V31h5.1v9.76l-1.78,1.88,6.1,4.11,5.66-4.22-.78-.44a1.46,1.46,0,0,0-.33.22.82.82,0,0,1-.56.22c-.55,0-2.32-1.55-2.55-1.88V31h5.55v9.2a7.78,7.78,0,0,0,.66,3.33,11,11,0,0,0,3.22,3.22c.56-.34,5.77-4.11,5.77-4.11l-.22-.33ZM902.62,25.7H897.5V15.09l2.11-1.77,3,2.55V25.7Zm11.53,0h-5.76V14.94l2-1.66,3.66,3.43.11,9m141.06,14.18a12.24,12.24,0,0,0-11.43,11.76c0,2.33.89,5.76,4.22,5.76,1.44,0,2.44-.66,2.44-2.55a2.83,2.83,0,0,0-.34-1.33c-.22.67-1.33,2.11-2.44,2.11-2.44-.11-3.1-2-3.1-3.66,0-3.55,2.55-7.65,6.88-7.65,2.32,0,4.65,1,7,3.66,0,0,5-3.66,5-3.77-2.77-3.55-4.54-4.44-8.2-4.33"/><polygon class="cls-1" points="116.17 160.48 116.17 166.74 123.61 166.74 123.61 187.33 130.74 187.33 130.74 166.74 138.14 166.74 138.14 160.48 116.17 160.48"/><path class="cls-1" d="M157.13,180.88a7.58,7.58,0,0,1-5.84,0,6.46,6.46,0,0,1-2.24-1.59,7.46,7.46,0,0,1-1.43-2.39,9,9,0,0,1,0-6,7.09,7.09,0,0,1,1.43-2.37,6.51,6.51,0,0,1,2.24-1.61,7.67,7.67,0,0,1,5.84,0,6.51,6.51,0,0,1,2.24,1.61,7.34,7.34,0,0,1,1.42,2.37,8.83,8.83,0,0,1,0,6,7.43,7.43,0,0,1-1.42,2.39,6.69,6.69,0,0,1-2.24,1.59m7.32-17a13.81,13.81,0,0,0-4.54-2.86,16.38,16.38,0,0,0-11.38,0,14,14,0,0,0-4.55,2.86,12.86,12.86,0,0,0-3,4.39,14.94,14.94,0,0,0,0,11.23,12.86,12.86,0,0,0,3,4.39,14,14,0,0,0,4.55,2.86,16.38,16.38,0,0,0,11.38,0,13.67,13.67,0,0,0,4.54-2.87,13.06,13.06,0,0,0,3-4.38,15,15,0,0,0,0-11.23,13.51,13.51,0,0,0-3-4.39"/><path class="cls-1" d="M191.2,173.88a7.82,7.82,0,0,1-.49,2.75,6.63,6.63,0,0,1-3.63,3.84,7.53,7.53,0,0,1-3.07.59h-4.18V166.74H184a8.47,8.47,0,0,1,3.15.55,6.12,6.12,0,0,1,2.23,1.49,6.43,6.43,0,0,1,1.35,2.24,8.69,8.69,0,0,1,.44,2.81m3.16-9.82a13.62,13.62,0,0,0-4.58-2.67,17.66,17.66,0,0,0-5.81-.92H172.7v26.84H184a17.19,17.19,0,0,0,5.78-.92,12.94,12.94,0,0,0,4.57-2.68,12.28,12.28,0,0,0,3-4.23,15,15,0,0,0,0-11.23,12.08,12.08,0,0,0-3-4.21"/><path class="cls-1" d="M216.52,177.24h-6.35l3.18-9.39Zm1.23-16.78H209l-10,26.66-.08.2H207l1.31-3.82h10.25l1.32,3.82H228l-10.1-26.75Z"/><polygon class="cls-1" points="244.18 160.48 238.57 170.13 232.89 160.48 224.82 160.48 235.01 176.52 235.01 187.33 242.14 187.33 242.14 176.52 252.28 160.48 244.18 160.48"/><path class="cls-1" d="M133.67,148.38a50,50,0,0,1,99.66.3c.06,1,.1,2,.1,3.08h17.48c0-.92,0-1.85-.06-2.76a67.42,67.42,0,0,0-134.69-.75c-.06,1.16-.09,2.33-.09,3.5h17.48a32.1,32.1,0,0,1,.12-3.39"/><path class="cls-1" d="M156.21,148.58a27.46,27.46,0,0,1,54.58.21,25.13,25.13,0,0,1,.16,3h17.48c0-1,0-1.91-.09-2.86a44.94,44.94,0,0,0-89.7-.11c-.07,1-.1,2-.1,3H156a26.14,26.14,0,0,1,.19-3.19"/><path class="cls-1" d="M183.49,129.27A22.47,22.47,0,0,0,161,151.72v0h44.91a22.46,22.46,0,0,0-22.42-22.49h0"/></g></g></g></g></svg>