<?xml version="1.0" encoding="UTF-8"?><svg xmlns="http://www.w3.org/2000/svg" viewBox="0 0 1010.14 356.62"><defs><style>.s,.t{fill:#fff;}.t{fill-rule:evenodd;}</style></defs><g id="a"/><g id="b"><g id="c"><path class="s" d="M114.1,59.77v-4.48c0-3.82,.1-7.64,.11-11.45,0-6,.09-12,.06-18,0-3.85-.09-7.69-.29-11.53-.09-1.08-.35-2.14-.78-3.14-.61-1.57-2-2.07-3.55-2.26-1-.12-1.3-.64-1-1.57,.09-.18,.26-.3,.46-.34,5.42-1.02,10.85-2.02,16.28-3h.18V22.53l.72-.33c4.5-2.14,9.11-2.75,13.79-.74,4.2,1.86,7.33,5.51,8.53,9.94,2.34,6.9,1.62,14.47-2,20.79-2.79,5-7.27,7.73-12.76,8.88-4.1,.74-8.29,.76-12.4,.06-2.22-.31-4.42-.78-6.63-1.17-.25-.05-.45-.13-.72-.19Zm11.38-15.41h0v6.76c0,2.25,.1,4.29,.18,6.43,0,.4,0,.9,.57,1,2.64,.4,5.1,.1,6.93-2.1,.71-.85,1.33-1.78,1.84-2.77,2.11-4.1,2.72-8.54,2.83-13.07,.21-3.71-.41-7.42-1.83-10.86-.66-1.66-1.8-3.1-3.27-4.12-2.15-1.4-4.39-1.22-6.7-.42-.41,.14-.53,.29-.53,.69v18.45h-.02Z"/><path class="s" d="M20.5,9c-.16,7.5-.32,14.91-.47,22.4,2.4-.1,4.64-.13,6.87-.32,1.71-.13,3.21-1.17,3.92-2.73,.73-1.5,1.24-3.14,1.9-4.82h2v18.7h-2.15c-.36-1.22-.65-2.43-1.1-3.57-1-2.59-2.77-4.09-5.71-4-1.84,0-3.69-.17-5.65-.26v2.51c.12,4,.17,8.06,.4,12.08,.15,1.85,.49,3.67,1,5.45,.47,1.98,2.21,3.4,4.24,3.47,1,.09,2,.32,2.92,.47,.21,2.19,.21,2.18-1.82,2.18H0v-2.17c1-.2,2-.46,3-.61,1.66-.18,3.05-1.33,3.53-2.93,.52-1.4,.85-2.87,1-4.36,.6-8.63,.6-17.26,.48-25.9,0-3.13-.21-6.35-.47-9.52-.14-1.39-.45-2.75-.91-4.07-.69-2.17-2.35-3.09-4.54-3.36-.69-.06-1.36-.14-2.09-.22v-2.35H44.73c.09,5.13,.17,10.3,.26,15.55-.72,.23-1.44,.47-2.15,.68-.55,.16-.59-.28-.71-.62-.75-2.49-1.88-4.86-3.36-7-2.02-3.01-5.44-4.78-9.06-4.68h-9.21Z"/><path class="s" d="M39.32,40.29c-.1-5.45,1.88-10.74,5.54-14.79,2.87-3.06,6.73-5.01,10.9-5.5,3.69-.61,7.48-.26,11,1,4.78,1.74,8.48,5.61,10,10.47,2.15,5.81,2.11,12.21-.11,18-2.71,7-7.88,11-15.33,11.9-3.5,.53-7.07,.19-10.4-1-5.58-2.12-8.92-6.27-10.55-11.89-.73-2.67-1.08-5.42-1.05-8.19Zm26.94,2h.22c-.29-3.18-.48-6.38-.88-9.61-.3-2.78-1.27-5.45-2.83-7.77-2.24-3.14-6.28-3.33-8.43-.29-.67,.98-1.2,2.06-1.57,3.19-.85,2.82-1.3,5.74-1.34,8.68-.32,4.37-.09,8.76,.68,13.07,.4,2.54,1.35,4.97,2.8,7.1,1.49,2.27,4.53,2.9,6.8,1.41h0c.56-.37,1.04-.85,1.41-1.41,.83-1.19,1.46-2.51,1.88-3.9,.85-3.4,1.27-6.9,1.26-10.41v-.06Z"/><path class="s" d="M188.49,38.91h-22.78c-.68,0-.91,.13-.88,.88,.02,2.37,.39,4.73,1.08,7,2,6,6.62,9.21,13,9,2.63-.03,5.2-.87,7.34-2.4,.29-.21,.64-.69,1-.09s.9,.86,.27,1.61c-2.89,3.52-7,5.82-11.52,6.43-4.69,.87-9.55,0-13.65-2.43-4.24-2.55-7.26-6.73-8.35-11.56-1.7-6.76-1-13.28,2.74-19.24,2.81-4.54,7.55-7.53,12.85-8.11,2.47-.38,4.99-.29,7.42,.27,3.77,.87,6.98,3.32,8.81,6.73,1.87,3.68,2.79,7.78,2.67,11.91Zm-23.64-3l12-.32c-.16-2.06-.23-4-.49-5.9-.17-1.96-.78-3.85-1.79-5.53-.92-1.6-2.96-2.16-4.57-1.26h0c-.16,.1-.31,.2-.46,.32-.41,.28-.78,.62-1.09,1-2.59,3.4-3.14,7.4-3.52,11.63l-.08,.06Z"/><path class="s" d="M218.93,27.07v4.62c0,1.06-1,.69-1.45,1-.25-.14-.46-.35-.59-.6-.78-2.65-2.15-5.08-4-7.13-1.59-1.62-3.83-2.42-6.09-2.19-3,.28-4.9,2.74-4.83,5.88,.07,2.2,1.43,4.16,3.47,5,2.49,1.32,5.09,2.44,7.66,3.63,2.42,.97,4.55,2.56,6.17,4.6,1.07,1.55,1.67,3.39,1.7,5.28,.23,2.77-.42,5.54-1.87,7.91-2.11,3.18-5.44,5.35-9.2,6-3.68,.71-7.46,.71-11.14,0-2.35-.38-4.61-1.09-6.92-1.65-.49-.11-.63-.4-.64-.91-.06-3.53-.14-7-.23-10.58,0-.58,.35-.58,.68-.67,1.42-.42,1.12-.38,1.57,.74,.87,2.49,2.2,4.79,3.93,6.78,2.09,2.39,5.3,3.47,8.41,2.83,2.33-.45,4.14-2.28,4.57-4.61,.61-2.45-.57-4.99-2.83-6.11-1.74-.96-3.54-1.79-5.39-2.51-2.33-.79-4.53-1.94-6.5-3.41-3-2.51-4-5.82-3.66-9.6,.48-5.89,5.23-10.12,11-11.2,4.99-.85,10.11-.4,14.88,1.28,.7,.09,1.2,.74,1.11,1.44-.09,1.37,0,2.76,0,4.13l.19,.05Z"/><path class="s" d="M78.46,23.2l16.94-3.43v8.63c.48-.84,.93-1.7,1.44-2.5,1.5-2.6,3.84-4.61,6.63-5.69,2.28-.88,4.82-.82,7.06,.16,.6,.26,.79,.54,.53,1.2-1.29,3.33-2.52,6.67-3.82,10.12l-.85-.47c-2.87-1.77-6.41-2.04-9.51-.72-1.07,.33-1.76,1.38-1.64,2.5,.07,4.43-.1,8.86,0,13.28,.04,2.76,.24,5.51,.59,8.24,.35,2.75,1.44,3.58,4.22,3.72,.69,0,1.37,.11,2.08,.18v2.18h-22.42c-1.57,0-1.27,0-1.29-1.26v-.87c.43-.08,.84-.17,1.25-.23,2.52-.32,3.72-1.4,3.92-3.92,.24-2.68,.31-5.39,.37-8.09,.08-3.37,.12-6.73,.07-10.1,0-2.41-.2-4.82-.42-7.22s-1.29-3.44-3.71-3.78q-1.56-.28-1.44-1.93Z"/><path class="t" d="M369.55,4.66c-.25,4.21-.49,8.41-.74,12.78l-6.31-.23c-.15-2.64-.28-5.21-.43-7.86h-9.83V28.15h4.25c.33-1.37,.66-2.72,1-4.14h4.37v12.9h-4.25c-.36-1.39-.72-2.81-1.08-4.27h-4.23v20h9.83c.31-2.84,.63-5.66,1-8.63l6.63,.22c.18,4.44,.35,8.78,.52,13.21h-32.28v-4.64l4.53-.78V9.83l-5.06-.55V4.69l32.08-.03Z"/><path class="t" d="M483.71,75.3c.08-1.29,.16-2.45,.24-3.63l3.42-.75V25.92l-4.06-.61v-3.77l10.74-1.49c.38,1.39,.75,2.67,1.12,4,.15-.12,.3-.25,.43-.39,2.45-2.8,6.15-4.18,9.83-3.66,4.83,.46,7.5,3.52,8.84,7.86,.61,1.95,1,3.96,1.15,6,.43,4.17,.29,8.37-.41,12.5-.28,1.57-.73,3.1-1.33,4.57-1.61,4.16-5.54,6.96-10,7.13-2.38,.27-4.79-.07-7-1-.17-.06-.34-.11-.52-.15v14.09l3.65,.75c-.08,1.19-.16,2.37-.25,3.63l-15.85-.08Zm12.48-23.53c2.66,1.19,5.69,1.3,8.43,.29,.5-.14,.89-.55,1-1.06,.34-1.4,.76-2.79,1-4.21,.53-4.31,.6-8.67,.21-13-.1-1.48-.38-2.94-.82-4.35-1-3.07-3-4.25-6.21-3.73l-.47,.11c-1.84,.28-3.19,1.9-3.13,3.76v22.19h0Z"/><path class="t" d="M603.11,52.83l3.79,.75c-.07,1.31-.14,2.54-.21,3.83h-12.29v-25.3c-.03-1.12-.23-2.22-.59-3.28-.42-1.22-1.49-2.09-2.76-2.26-1.22-.29-2.5-.18-3.66,.31-1.07,.34-1.8,1.32-1.84,2.44v23.16c.02,.12,.05,.24,.09,.36l3.61,.73c-.08,1.27-.15,2.53-.23,3.85h-15.9v-3.83l3.54-.75V26.3l-4-.46v-3.93l10.43-1.49c.33,1.16,.63,2.29,.94,3.4,.79-.6,1.61-1.31,2.51-1.89,3.25-2.16,7.36-2.61,11-1.19,3.01,1.08,5.13,3.81,5.43,7,.15,.91,.22,1.84,.21,2.76v22.33h-.07Z"/><path class="t" d="M385.78,52.84l3.64,.74c-.08,1.3-.15,2.53-.23,3.83h-16c.07-1.26,.14-2.48,.21-3.82l3.39-.73c.26-.87,.31-25.23,0-26.54l-4-.45v-4l10.47-1.5c.31,1.15,.62,2.26,1,3.47,.29-.25,.62-.56,1-.85,3.11-2.77,7.42-3.77,11.43-2.66,3.66,.88,5.75,3.37,6.48,7,.18,.95,.27,1.91,.26,2.88v22.62l3.77,.73c0,.65-.08,1.27-.09,1.9s0,1.26,0,2h-12.48v-24.55c-.01-.92-.09-1.85-.23-2.76-.16-1.97-1.76-3.52-3.74-3.61-1.57-.15-3.15-.12-4.3,1.3-.44,.51-.68,1.17-.67,1.85v22c0,.31,.09,.69,.09,1.15Z"/><path class="t" d="M659.63,25.3l-4.06-.4v-3.45l11.94-1.36c.58,1.39,.91,2.87,1,4.38v28.36l3.71,.75c-.13,1.3-.26,2.53-.4,3.83h-10.29c-.29-.91-.6-1.88-1-3-.33,.26-.58,.43-.8,.64-3.72,3.23-9.01,3.9-13.42,1.71-2.63-1.27-4.44-3.79-4.8-6.69-.17-.99-.25-1.99-.25-3V25.35l-4-.44v-3.43l11.84-1.38c.45,1.26,.75,2.57,.9,3.9v21.27c0,.96,.06,1.92,.18,2.88,.13,2.42,2.19,4.28,4.61,4.17,.92,0,1.84-.13,2.73-.37,1.21-.55,2.05-1.68,2.22-3V25.6c-.03-.1-.06-.2-.11-.3Z"/><path class="t" d="M463.82,41.28c-.16,2.82,.56,5.61,2.06,8,1.31,2.04,3.58,3.27,6,3.23,2.36,.03,4.71-.44,6.88-1.37,.28-.13,.59-.24,1-.4,.48,1.11,1,2.2,1.49,3.43-.64,.48-1.31,.92-2,1.32-4.25,2.5-9.33,3.15-14.07,1.8-3.91-1.18-7.08-4.07-8.62-7.86-1.83-4.14-2.52-8.69-2-13.19,.19-2.76,.87-5.47,2-8,2-4.13,4.91-7,9.49-8,4.36-.93,8.41-.37,11.79,2.86,1.88,1.95,3.21,4.37,3.86,7,.74,2.67,1.1,5.44,1.07,8.21-.14,.95-.42,1.87-.83,2.73l-18.12,.24Zm11-4.76c-.1-1.11-.15-2-.27-3-.17-2.17-.77-4.28-1.76-6.21-.94-1.98-3.28-2.87-5.3-2-.86,.23-1.56,.86-1.87,1.69-1.19,2.95-1.87,6.08-2,9.26,.02,.25,.07,.5,.13,.74l11.07-.48Z"/><path class="t" d="M635.68,41.06l-18.15,.22c-.09,1.25,0,2.5,.29,3.72,.32,1.83,1.1,3.55,2.26,5,1.29,1.57,3.21,2.5,5.25,2.52,2.3,.09,4.59-.32,6.71-1.2l1.43-.55,1.5,3.48-.6,.39c-3.7,2.64-8.26,3.8-12.77,3.27-5.7-.63-9.51-4-11.57-9.17-2.64-6.49-2.57-13.77,.2-20.2,1.53-4.22,5.14-7.35,9.54-8.25,3.65-.78,7.19-.54,10.39,1.66,2.15,1.58,3.77,3.78,4.63,6.31,1.21,3.19,1.78,6.59,1.67,10-.15,.96-.41,1.9-.78,2.8Zm-7.24-4.52c-.06-2.41-.44-4.8-1.11-7.12-.38-1.15-.95-2.22-1.69-3.17-1.43-1.83-5.85-1.46-6.54,1.06-.64,2.02-1.14,4.08-1.52,6.17-.24,1.17-.28,2.37-.14,3.56l11-.5Z"/><path class="t" d="M571.08,41.06l-18.17,.23c0,3.26,.55,6.22,2.62,8.7,1.25,1.56,3.13,2.49,5.13,2.52,2.35,.11,4.7-.29,6.88-1.19l1.41-.56,1.48,3.41c-.43,.32-.81,.64-1.24,.92-3.99,2.59-8.84,3.51-13.51,2.57-4.49-.86-7.62-3.66-9.68-7.66-1.94-4.04-2.74-8.54-2.32-13,.14-3.01,.84-5.97,2.07-8.73,1.32-3.25,3.87-5.84,7.1-7.21,4-1.56,8-1.71,11.88,.38,2.41,1.4,4.27,3.59,5.27,6.2,1.38,3.36,2.06,6.97,2,10.6-.17,.98-.48,1.93-.92,2.82Zm-7.19-4.53c-.11-1.21-.17-2.28-.31-3.34-.18-2-.75-3.95-1.67-5.74-.94-2.09-3.4-3.02-5.49-2.08h0l-.23,.12c-.6,.22-1.09,.67-1.35,1.26-1.01,2.36-1.66,4.86-1.91,7.42-.1,.9-.15,1.81-.25,2.88l11.21-.52Z"/><path class="t" d="M439.9,20.43c.28,1.11,.53,2.14,.82,3.26l1.28-.78c2.54-1.41,5.35-2.27,8.24-2.51,1.28-.21,2.56,.39,3.21,1.51-.35,3.2-.72,6.47-1.1,9.83l-5.89-.24c-.22-1.81-.44-3.51-.65-5.28-1.36,.09-2.68,.53-3.81,1.29v25.4l3.66,.82c-.07,1.24-.13,2.43-.21,3.71h-15.78v-3.73l3.33-.8V26.27l-3.8-.44v-3.92l10.7-1.48Z"/><path class="t" d="M674.44,57.43c.06-1.29,.11-2.49,.16-3.74l3.29-.81V26.29l-3.89-.47v-3.91l10.81-1.48c.28,1.13,.55,2.16,.79,3.1,1.48-.77,3.01-1.46,4.57-2.05,1.59-.46,3.2-.82,4.83-1.07,1.34-.36,2.75,.27,3.38,1.5-.36,3.13-.72,6.4-1.1,9.83l-5.9-.22c-.23-1.81-.44-3.55-.69-5.46l-3.69,1.25v25.6l3.65,.82c-.08,1.24-.15,2.47-.23,3.73l-15.98-.03Z"/><path class="t" d="M534.88,26l-3.76,1.38v25.53l3.73,.84c-.11,1.26-.2,2.45-.31,3.71h-15.73v-3.7l3.35-.85V26.27l-3.85-.44v-3.92l10.69-1.5,.91,3.17c1-.54,2.05-1.11,3.09-1.61,1.96-.84,4.04-1.37,6.17-1.57,1.33-.29,2.71,.28,3.44,1.43l-1.09,9.83-5.89-.22c-.3-1.76-.47-3.44-.75-5.44Z"/><path class="t" d="M419.71,13.38v7.53h6.57c-.15,1.67-.28,3.15-.41,4.7l-5.9,.67c-.06,.33-.1,.66-.12,1v21.56c-.01,.48,.01,.96,.07,1.43,.11,1.43,1.32,2.53,2.76,2.5h3.75c.13,1.33,.26,2.59,.39,3.87-.9,.54-1.91,.88-2.95,1-2.2,.47-4.47,.54-6.7,.2-3.28-.42-5.81-3.08-6.08-6.37-.07-.72-.1-1.45-.09-2.17V27.59c0-.43-.06-.87-.09-1.32l-4.16-.69c.07-1.49,.14-2.94,.21-4.57l4.68-.23,2.08-7,5.99-.4Z"/><path class="s" d="M699.27,55.14c.28,1.7-.87,3.31-2.57,3.59-1.7,.28-3.31-.87-3.59-2.57-.28-1.7,.87-3.3,2.57-3.59,.17-.02,.35-.02,.52,0,1.55-.12,2.92,1.02,3.07,2.57Zm-5.25,0c-.1,1.21,.8,2.26,2,2.36,1.21,.1,2.26-.8,2.36-2,.1-1.19-.77-2.23-1.96-2.36h-.25c-1.1-.1-2.07,.71-2.18,1.81v.21h0l.02-.02Zm1.79,1.23h-.81v-2.37c.4-.06,.81-.08,1.22-.08,.38-.04,.76,.03,1.11,.18,.18,.12,.29,.32,.29,.53,0,.25-.25,.47-.64,.56h0c.3,.06,.53,.31,.57,.61,.04,.2,.11,.4,.2,.58h-1c-.11-.15-.18-.33-.2-.51-.03-.22-.23-.38-.46-.36h-.29v.86Zm.01-1.38h.24c.31,0,.52-.1,.52-.29s-.19-.3-.48-.3h-.28v.59Z"/><path class="t" d="M1010.14,52.43c0,4.09-3.31,7.41-7.4,7.41-4.09,0-7.41-3.31-7.41-7.4,0-4.09,3.31-7.41,7.4-7.41h.08c4.05,.05,7.32,3.34,7.34,7.4Z"/><path class="t" d="M979.01,35.11l17.72-1.83c-1.72-11.01-8.19-17.28-19.41-18.81-16.81-2.29-27.21,5.51-29.96,9.48s-4.15,7.48-4.44,13.9,3.67,12.23,5.08,13.79,7.66,9.02,23.54,9.02,21.08-6.06,23.69-11.81c.9-1.86,1.42-3.89,1.52-5.96h-17.44c-.52,4.61-3.12,6.92-7.8,6.92-7.03,0-7.95-6.57-7.66-11.93s-.15-12.38,7.34-12.68c4.98-.2,7.59,3.1,7.82,9.91Z"/><path class="t" d="M944.89,47.03v12.59h-31.72v-13.02h5.99v-13.67c.04-1.28-.34-2.53-1.08-3.56-.89-1.15-2.2-1.92-3.64-2.13-2.54-.59-5.2,0-7.26,1.58-1.91,1.43-3.04,3.68-3.04,6.07-.07,3.83,0,7.66,0,11.57,2.06,.11,4.09,.11,6.14,.11v13.04h-32.45v-13.02h5.83V27.03h-5.83V14h25.59v9c.37-.4,.68-.7,.96-1.03,1.93-2.37,4.36-4.28,7.12-5.59,1.94-.9,4.02-1.48,6.14-1.72,3.59-.48,7.23-.31,10.76,.49,2.59,.55,4.99,1.75,6.98,3.5,2.02,1.83,3.37,4.29,3.83,6.97,.24,1.24,.36,2.5,.36,3.76v17.18h5.29l.03,.47Zm-103.04-33.05h-7.74V0h41.5V13.9h-7.74V46.57h7.73v13.04h-41.48v-13.01h7.73V13.98Z"/><g id="d"><g id="e"><g id="f"><path id="g" class="s" d="M337.4,318.72c-2.65,2.44-2.84,6.56-.41,9.22h0c.44,.48,.95,.9,1.51,1.22l18.28,12.4-8.85-20.08c-1.86-4.77-6.94-5.77-10.53-2.77"/><path id="h" class="s" d="M353.13,308.97c-3.55,.28-6.2,3.38-5.92,6.93,.05,.68,.21,1.34,.47,1.97l9.21,21.39,3.18-22.49c.75-5.56-3.53-8.17-6.94-7.8"/><path id="i" class="s" d="M361.5,315.9h1.75s.92,0,1.05,.43c-.68,.55-2.54,.62-2.29,3.56l2.91,19.36,9.1-21.46c1.33-3.35-.3-7.14-3.65-8.47-.59-.24-1.22-.38-1.86-.44h-.49c-3.12,0-6.68,2.24-6.5,7.03"/><path id="j" class="s" d="M373.64,321.69l-8.61,19.87,18.28-12.47c4.21-2.96,3.53-7.68,1.18-10.02-1.26-1.27-2.98-1.97-4.77-1.95-2.27,0-4.7,1.19-6.11,4.59"/><path id="k" class="s" d="M381.27,331.87l-17.17,11.86h21.15c4.33,0,7.12-4.43,5.88-8.48-.87-2.67-3.33-4.5-6.14-4.56-1.33,.02-2.62,.43-3.72,1.18"/><path id="l" class="s" d="M336.91,343.73h20.81l-17.16-11.86c-3.97-2.52-8.42-1.04-10.03,3.14-1.16,3.48,.71,7.24,4.19,8.4,.7,.23,1.43,.35,2.17,.34"/></g><g id="m"><path id="n" class="s" d="M436.99,343.81v-40.31h-9.54l-10.6,17.04-10.6-17.04h-9.54v40.31h8.67v-26.15l11.23,17.04h.23l11.3-17.21v26.31h8.85Z"/><path id="o" class="s" d="M471.67,331.88v-.11c.04-1.56-.25-3.11-.83-4.55-.56-1.28-1.41-2.41-2.48-3.32-1.22-.99-2.57-1.8-4.03-2.38-1.77-.73-3.58-1.34-5.44-1.81-1.73-.46-3.18-.87-4.29-1.21-.93-.27-1.83-.64-2.68-1.1-.56-.3-1.03-.74-1.35-1.3-.26-.53-.39-1.11-.37-1.69v-.12c0-1,.48-1.93,1.3-2.5,1.15-.75,2.52-1.11,3.89-1.01,1.78,.01,3.54,.38,5.18,1.07,1.86,.79,3.63,1.76,5.29,2.91l4.61-6.68c-2.05-1.64-4.36-2.92-6.83-3.8-2.63-.91-5.39-1.35-8.16-1.32-1.93-.01-3.86,.28-5.7,.87-1.64,.52-3.15,1.36-4.46,2.47-1.23,1.05-2.22,2.36-2.91,3.83-.71,1.57-1.06,3.27-1.03,4.98v.11c-.05,1.72,.27,3.43,.95,5.01,.62,1.32,1.53,2.47,2.68,3.37,1.28,.97,2.7,1.73,4.21,2.27,1.82,.66,3.68,1.22,5.56,1.67,1.4,.32,2.77,.72,4.12,1.21,.86,.29,1.69,.68,2.47,1.15,.51,.3,.93,.72,1.22,1.24,.22,.48,.33,1,.32,1.53v.11c.03,1.14-.56,2.2-1.53,2.79-1.3,.75-2.79,1.1-4.29,1.01-2.19,.03-4.36-.42-6.36-1.32-2.04-.95-3.94-2.15-5.68-3.58l-5.22,6.25c2.34,2.14,5.08,3.79,8.06,4.87,2.9,1.05,5.96,1.59,9.04,1.59,2.03,.03,4.05-.23,5.99-.79,1.69-.49,3.27-1.3,4.66-2.38,1.3-1.06,2.35-2.4,3.05-3.92,.76-1.67,1.13-3.49,1.1-5.33l-.04-.09Z"/><path id="p" class="s" d="M511.04,343.81v-40.31h-8.74v24.81l-18.89-24.81h-8.18v40.31h8.74v-25.62l19.53,25.62h7.54Z"/><path id="q" class="s" d="M550.7,332.75v-.11c0-2.69-.68-4.77-2.02-6.3-1.53-1.64-3.44-2.88-5.56-3.6,.73-.38,1.42-.85,2.04-1.38,.64-.54,1.2-1.17,1.67-1.87,.49-.74,.88-1.54,1.15-2.38,.3-.99,.45-2.02,.44-3.05v-.11c.11-2.96-1.21-5.79-3.55-7.6-2.36-1.89-5.62-2.83-9.76-2.82h-18.69v40.31h19.18c2.08,.02,4.16-.21,6.19-.69,1.7-.4,3.32-1.1,4.77-2.07,1.29-.88,2.34-2.07,3.05-3.46,.74-1.5,1.11-3.16,1.07-4.83h.02Zm-11.06-17.23c.1,1.33-.57,2.59-1.73,3.26-1.44,.73-3.05,1.08-4.67,1h-8.17v-8.52h8.74c1.51-.09,3.02,.28,4.32,1.07,.99,.7,1.56,1.87,1.49,3.08v.11Zm2.23,16.12c.09,1.33-.55,2.6-1.67,3.32-1.41,.78-3,1.15-4.61,1.07h-10.5v-8.86h10.25c2.31,0,3.97,.39,5.01,1.18,1.02,.73,1.62,1.92,1.59,3.18l-.06,.13Z"/><path id="r" class="s" d="M589.19,337.3l-5.64-5.72c-1.43,1.36-3.03,2.52-4.77,3.46-1.82,.89-3.82,1.33-5.84,1.26-3.22,.03-6.3-1.33-8.43-3.74-1.04-1.19-1.84-2.55-2.38-4.03-.58-1.56-.87-3.22-.87-4.89v-.12c-.02-1.66,.28-3.31,.87-4.87,.54-1.46,1.35-2.81,2.38-3.97,1.04-1.15,2.3-2.08,3.71-2.71,1.47-.66,3.07-.99,4.69-.98,1.9-.03,3.79,.38,5.5,1.21,1.73,.89,3.34,2.02,4.77,3.34l5.64-6.5c-.93-.92-1.93-1.77-3-2.54-1.1-.78-2.28-1.43-3.51-1.96-1.36-.57-2.78-1-4.23-1.26-1.7-.32-3.42-.47-5.15-.46-2.93-.03-5.83,.52-8.54,1.64-2.49,1.04-4.74,2.56-6.62,4.49-3.79,3.94-5.9,9.21-5.86,14.68v.11c0,2.78,.53,5.54,1.59,8.12,.99,2.46,2.45,4.71,4.32,6.6,1.88,1.88,4.1,3.38,6.56,4.4,2.61,1.08,5.41,1.62,8.24,1.59,1.78,.01,3.56-.15,5.3-.49,1.5-.3,2.96-.79,4.34-1.44,1.3-.62,2.53-1.38,3.66-2.27,1.15-.92,2.23-1.92,3.23-3l.06,.05Z"/></g></g></g><path class="s" d="M106.66,282.5h10.84v16.59c.1-.08,.18-.17,.27-.25,2.97-3.32,6.72-4.05,10.84-3.05,3.96,.95,6.18,3.76,7.13,7.6,.31,1.25,.47,2.52,.49,3.81,.05,6.49,0,12.98,0,19.48v.36h-10.89v-16.52c0-.84-.11-1.68-.33-2.49-.29-1.38-1.46-2.4-2.87-2.49-1.44-.26-2.89,.37-3.67,1.6-.64,1.08-.95,2.32-.89,3.57v16.34h-10.91v-44.55Z"/><path class="s" d="M92.43,298.85v-2.67h10.51v30.87h-10.48v-2.82c-.29,.32-.47,.51-.66,.7-1.87,1.85-4.38,2.9-7.01,2.92-6.59,.33-12.55-3.88-14.43-10.2-2.09-6.4-1.16-12.36,3.32-17.51,3.54-4.14,9.23-5.75,14.42-4.06,1.55,.5,2.95,1.39,4.05,2.6l.18,.16,.1,.02Zm-12.53,12.8c-.03,3.53,2.81,6.42,6.34,6.44,3.53,.03,6.42-2.81,6.44-6.34,.03-3.53-2.81-6.41-6.34-6.44h-.04c-3.46-.07-6.33,2.67-6.41,6.13h0v.22Z"/><path class="s" d="M34.07,296.18h11.24c.38-.05,.74,.19,.83,.56,2.21,5.64,4.42,11.29,6.63,16.95l.24,.6c.12-.28,.22-.47,.29-.67,2.21-5.59,4.42-11.2,6.63-16.81,.1-.41,.48-.68,.9-.63h10.87c-.1,.27-.16,.46-.23,.65l-17.09,41.17c-.1,.41-.49,.68-.9,.63h-10.94c.08-.24,.14-.41,.21-.57,1.42-3.36,2.83-6.72,4.26-10.07,.18-.37,.18-.81,0-1.19-4.23-9.95-8.45-19.92-12.67-29.9-.09-.26-.16-.47-.27-.72Z"/><path class="s" d="M155.09,295.35c7.38,0,13.59,4.34,15.71,11.03,3.32,10.52-3.55,21.25-15.34,21.45-5.94,.11-10.86-2.1-14.21-7.12-6.11-9.12-1.8-23.3,11.39-25.15,.8-.08,1.63-.12,2.45-.22Zm0,10.06c-3.43-.04-6.25,2.72-6.29,6.15s2.72,6.25,6.15,6.29c3.43,.04,6.25-2.72,6.29-6.15h0c.11-3.35-2.52-6.14-5.86-6.25l-.29-.03Z"/><path class="s" d="M173.47,312.01c0-9.81,7.55-17,17.12-16.59,5.8,.27,10.58,2.64,13.64,7.72,5.67,9.43,.88,23.16-12.22,24.6-6,.66-11.17-1.17-15.08-5.93-2.25-2.77-3.47-6.23-3.47-9.8Zm16.59-6.58c-3.44-.05-6.26,2.71-6.31,6.14-.05,3.44,2.71,6.26,6.14,6.31,3.44,.05,6.26-2.71,6.31-6.14v-.06c.09-3.36-2.55-6.16-5.91-6.25h-.23Z"/><path class="s" d="M211.86,310.49l11.61-28h12.95c-.08,.22-.15,.41-.22,.59-3.7,8.93-7.39,17.87-11.09,26.8-.1,.41-.49,.68-.91,.63h-11.61l-.73-.02Z"/><path class="s" d="M163.33,340.08v-1.48h6.27v17.41h-6.22v-1.79c-.92,1.15-2.23,1.92-3.68,2.17-2.98,.61-6.04-.61-7.78-3.1-2.68-3.82-2.5-8.95,.45-12.57,2.02-2.4,5.32-3.31,8.29-2.28,.93,.47,1.83,1.02,2.67,1.63Zm.15,7.26c.02-1.93-1.52-3.52-3.46-3.54h-.12c-1.96,.02-3.52,1.63-3.5,3.58,.02,1.96,1.63,3.52,3.58,3.5,1.94-.02,3.49-1.6,3.5-3.53h0Z"/><path class="s" d="M148.25,356.06h-6.44v-9.3c0-.42-.04-.84-.14-1.24-.15-.87-.87-1.52-1.75-1.58-.93-.18-1.86,.33-2.2,1.22-.21,.55-.32,1.13-.33,1.72v9.17h-6.36v-17.41h6.37v1.84l.36-.36c2.18-2.5,5.98-2.76,8.48-.57h0c.16,.14,.31,.28,.45,.44,.96,1.19,1.51,2.66,1.57,4.19v11.89h0Z"/><path class="s" d="M178.72,338.59v1.78c.08-.03,.16-.08,.23-.14,1.62-2.07,3.8-2.49,6.19-1.95s3.68,2.25,4.21,4.55c.14,.64,.22,1.29,.22,1.94v11.24h-6.39v-9.3c0-.42-.04-.84-.14-1.24-.15-.89-.91-1.55-1.81-1.59-.96-.16-1.9,.41-2.2,1.34-.18,.53-.27,1.09-.27,1.66v9.12h-6.39v-17.41h6.34Z"/><path class="s" d="M224.41,348.96h-12.05c.03,.84,.47,1.62,1.19,2.07,1.42,.91,3.27,.72,4.48-.46,.21-.29,.6-.38,.91-.22,1.6,.65,3.22,1.25,4.88,1.89-.07,.16-.15,.31-.24,.46-1.66,2.53-4.15,3.62-7.12,3.85-1.79,.18-3.6-.08-5.26-.78-3.17-1.4-4.69-3.95-5.08-7.3-.46-3.69,1.32-7.29,4.52-9.18,3.35-1.87,7.49-1.59,10.55,.73,1.85,1.52,2.99,3.73,3.17,6.12,.07,.94,.08,1.87,.05,2.81Zm-6.2-3.68c-.07-1.48-1.34-2.42-3.06-2.36-1.53,.06-2.72,1.09-2.7,2.36h5.76Z"/><path class="s" d="M115.36,343.7v12.36h-6.39v-12.32h-2.29v-5.16h2.25c.08-.83,.12-1.66,.25-2.42,.66-3.67,3.12-5.91,6.84-6.09,1.17,.02,2.34,.14,3.49,.37,.22,.08,.38,.26,.43,.49v4.93c-1.37-.39-2.7-.73-3.85,.35-.6,.63-.85,1.51-.67,2.36h4.25v5.14h-4.3Z"/><path class="s" d="M204.91,344.63c-.8-.32-1.64-.57-2.49-.73-.79-.08-1.59,0-2.36,.22-1.55,.51-2.5,2.07-2.24,3.67,.24,1.6,1.54,2.83,3.15,2.97,1.23,.14,1.87,0,3.86-.89,.02,.14,.04,.28,.05,.41v4.77c.05,.32-.15,.62-.46,.71-3.1,1.37-6.69,1.01-9.45-.95-2.87-1.97-3.87-4.9-3.64-8.29,.51-7.22,7.65-9.9,13.02-7.84,.36,.08,.59,.42,.54,.78,0,1.77,.02,3.5,.02,5.16Z"/><path class="s" d="M207.92,320.52c0-4.03,3.25-7.31,7.28-7.31h.11c3.86-.04,7.02,3.05,7.06,6.91h0c0,.07,0,.14,0,.22,.02,4.01-3.21,7.28-7.22,7.31h-.15c-3.86,.05-7.02-3.03-7.07-6.89h0v-.23Z"/><path class="s" d="M128.24,356.07h-6.33v-17.46h6.33v17.46Z"/><path class="s" d="M125.09,329.88c1.96-.02,3.56,1.54,3.58,3.5h0c.02,1.99-1.57,3.62-3.56,3.64-1.99,.02-3.62-1.57-3.64-3.56-.02-1.99,1.57-3.62,3.56-3.64h.05v.06Z"/><path class="s" d="M811.17,290.03v3.94h.16c.89-1.55,2.23-2.8,3.83-3.58,1.51-.74,3.16-1.13,4.84-1.13,1.74-.04,3.47,.26,5.1,.9,1.24,.49,2.32,1.3,3.15,2.35,.8,1.09,1.35,2.34,1.61,3.66,.33,1.58,.49,3.18,.47,4.79v17.41h-7.77v-16.02c0-2.33-.37-4.07-1.1-5.23-.69-1.15-2.02-1.73-3.88-1.73-2.1,0-3.65,.63-4.6,1.9s-1.4,3.32-1.4,6.21v14.82h-7.81v-28.29h7.4Z"/><path class="s" d="M841.01,311.55c2.62,2.05,6.25,2.26,9.09,.52,.96-.56,1.71-1.44,2.1-2.48h6.84c-1.08,3.39-2.75,5.81-5.03,7.26-2.46,1.52-5.32,2.28-8.21,2.19-2.06,.03-4.1-.33-6.02-1.06-1.71-.66-3.26-1.69-4.53-3.02-1.27-1.36-2.25-2.96-2.88-4.7-.69-1.93-1.03-3.97-1.01-6.02-.02-2.02,.33-4.02,1.04-5.91,.65-1.77,1.65-3.38,2.95-4.73,1.3-1.35,2.85-2.42,4.57-3.15,1.86-.79,3.87-1.18,5.89-1.15,2.17-.05,4.33,.43,6.27,1.4,1.74,.89,3.25,2.18,4.41,3.75,1.15,1.61,1.97,3.42,2.42,5.35,.51,2.05,.7,4.17,.54,6.27h-20.36c.1,2.55,.74,4.37,1.92,5.51Zm8.78-14.89c-1.13-1.1-2.67-1.66-4.24-1.53-1.07-.04-2.12,.18-3.09,.63-.76,.37-1.43,.9-1.97,1.56-.47,.58-.82,1.25-1.04,1.97-.18,.61-.3,1.23-.35,1.86h12.63c-.21-1.65-.88-3.2-1.94-4.48h0Z"/><path class="s" d="M884.91,318.33l-5.05-18.99h-.14l-4.74,18.99h-8.07l-8.97-28.29h8.21l5.2,19.22h.1l4.7-19.22h7.59l4.84,19.16h.1l5.19-19.16h7.99l-8.87,28.3h-8.1Z"/><path class="s" d="M908.09,311.3c.33,.59,.79,1.09,1.34,1.48,.58,.38,1.22,.65,1.9,.81,.72,.19,1.47,.29,2.22,.28,.58,0,1.15-.07,1.72-.19,.56-.12,1.11-.32,1.61-.6,.49-.27,.92-.64,1.24-1.1,.36-.48,.55-1.06,.55-1.65,0-1.17-.77-2.05-2.32-2.63-2.11-.74-4.26-1.33-6.45-1.75-1.13-.26-2.24-.56-3.31-.91-1.02-.33-1.98-.8-2.87-1.4-.83-.55-1.52-1.28-2.02-2.13-.55-.96-.83-2.04-.81-3.15-.06-1.57,.31-3.12,1.06-4.49,.68-1.15,1.64-2.11,2.79-2.79,1.22-.69,2.56-1.16,3.94-1.4,1.48-.27,2.99-.41,4.49-.41,1.49,0,2.99,.14,4.45,.44,1.36,.27,2.67,.77,3.86,1.48,1.13,.71,2.08,1.66,2.79,2.79,.8,1.32,1.26,2.81,1.34,4.35h-7.35c.02-1.24-.62-2.41-1.69-3.04-1.12-.55-2.36-.83-3.61-.81-.47-.01-.93,.01-1.4,.08-.48,.05-.95,.17-1.4,.35-.41,.18-.78,.46-1.07,.81-.31,.4-.46,.89-.44,1.4,0,.66,.29,1.29,.81,1.7,.58,.45,1.24,.8,1.94,1.02,.92,.3,1.85,.55,2.79,.74,1.06,.21,2.14,.45,3.23,.69,1.12,.25,2.22,.56,3.31,.93,1.03,.34,2,.83,2.88,1.45,.83,.59,1.52,1.35,2.02,2.24,.56,1.01,.84,2.16,.81,3.31,.15,3.11-1.39,6.07-4.03,7.72-1.26,.78-2.65,1.33-4.11,1.61-3.16,.63-6.41,.63-9.57,0-1.48-.29-2.9-.83-4.19-1.61-2.69-1.66-4.31-4.61-4.28-7.77h7.39c-.04,.74,.12,1.48,.45,2.15Z"/><path class="s" d="M802.52,344.48v3.83h-3.9v-3.83h3.9Z"/><path class="s" d="M813.26,331.38c-.82-.03-1.64,.19-2.33,.64-.62,.42-1.15,.97-1.53,1.61-.38,.69-.66,1.43-.81,2.2-.16,.8-.25,1.61-.25,2.42,0,.78,.09,1.56,.25,2.33,.15,.75,.43,1.47,.81,2.14,.36,.65,.87,1.2,1.48,1.61,1.78,.98,3.97,.76,5.52-.56,.79-.86,1.28-1.96,1.4-3.12h5.58c-.2,2.48-1.36,4.78-3.23,6.41-1.97,1.53-4.42,2.31-6.91,2.2-1.49,.02-2.96-.26-4.34-.81-1.27-.49-2.42-1.25-3.38-2.22-.94-.99-1.67-2.14-2.16-3.41-.54-1.39-.81-2.87-.81-4.36-.02-1.55,.22-3.09,.69-4.56,.45-1.34,1.16-2.57,2.1-3.63,.96-1.05,2.13-1.87,3.44-2.42,1.45-.6,3.01-.89,4.58-.85,1.22,0,2.44,.16,3.61,.49,1.11,.31,2.16,.81,3.1,1.48,1.95,1.4,3.14,3.63,3.23,6.03h-5.65c-.44-2.43-1.9-3.64-4.39-3.65Z"/><path class="s" d="M824.07,333.57c.95-2.65,3.02-4.75,5.65-5.76,2.91-1.07,6.1-1.07,9.01,0,2.63,1.01,4.69,3.11,5.65,5.76,1.07,2.96,1.07,6.21,0,9.17-.48,1.31-1.23,2.49-2.2,3.48-.98,.99-2.17,1.75-3.48,2.23-2.91,1.07-6.1,1.07-9.01,0-2.62-.99-4.68-3.08-5.65-5.71-1.05-2.97-1.05-6.2,0-9.17h.04Zm5.27,7.07c.15,.76,.42,1.49,.81,2.16,.39,.63,.93,1.15,1.56,1.52,.74,.4,1.58,.6,2.42,.57,.86,.03,1.71-.17,2.47-.57,.66-.36,1.22-.89,1.61-1.52,.4-.67,.67-1.4,.81-2.16,.16-.82,.24-1.64,.24-2.48,0-.84-.08-1.67-.24-2.49-.14-.76-.41-1.5-.81-2.16-.87-1.37-2.41-2.17-4.03-2.1-1.63-.08-3.18,.74-4.03,2.13-.4,.67-.67,1.4-.81,2.16-.16,.82-.24,1.66-.24,2.49,.02,.81,.11,1.62,.27,2.42l-.02,.02Z"/><path class="s" d="M851.9,327.58v2.84h.06c.72-1.05,1.68-1.91,2.79-2.53,1.13-.61,2.41-.92,3.69-.9,1.27,0,2.52,.27,3.66,.81,1.15,.56,2.05,1.54,2.51,2.73,.68-.97,1.55-1.79,2.55-2.42,1.14-.73,2.47-1.1,3.82-1.06,1.05,0,2.09,.13,3.11,.41,.89,.25,1.72,.7,2.42,1.31,.72,.64,1.27,1.45,1.61,2.35,.4,1.12,.6,2.3,.57,3.48v14.13h-5.82v-12.02c.02-.67-.01-1.34-.09-2-.04-.56-.19-1.11-.44-1.61-.24-.47-.62-.85-1.08-1.1-.61-.3-1.28-.44-1.95-.41-.69-.03-1.38,.13-1.98,.48-.49,.3-.9,.72-1.18,1.22-.3,.53-.49,1.11-.57,1.72-.1,.64-.15,1.28-.15,1.93v11.77h-5.82v-13.71c-.02-.58-.14-1.15-.35-1.69-.19-.51-.55-.94-1.01-1.23-.64-.36-1.36-.52-2.09-.48-.37,.02-.73,.08-1.08,.19-.48,.14-.93,.38-1.31,.7-.47,.4-.84,.9-1.09,1.47-.33,.79-.48,1.65-.45,2.51v12.25h-5.8v-21.11h5.47Z"/><path class="s" d="M884.04,344.94v3.78h-3.86v-3.78h3.86Z"/><path class="s" d="M886.69,330.69c.59-.89,1.37-1.63,2.29-2.17,.97-.56,2.02-.95,3.12-1.16,1.15-.23,2.31-.35,3.48-.35,1.08,0,2.16,.07,3.23,.23,1.04,.13,2.04,.43,2.98,.88,.88,.41,1.63,1.03,2.2,1.81,.62,.91,.92,1.99,.86,3.08v10.99c0,.91,.06,1.83,.16,2.73,.05,.69,.25,1.35,.57,1.96h-5.88c-.11-.32-.2-.66-.27-.99-.07-.35-.12-.7-.15-1.05-.89,.93-2,1.62-3.23,2-1.24,.38-2.54,.57-3.84,.57-.95,0-1.9-.11-2.82-.36-.83-.23-1.61-.62-2.28-1.15-.66-.52-1.19-1.2-1.53-1.97-.39-.88-.57-1.83-.55-2.79-.04-1.02,.18-2.04,.63-2.95,.39-.74,.94-1.38,1.61-1.86,.69-.48,1.47-.83,2.28-1.04,.86-.23,1.73-.41,2.6-.55s1.73-.25,2.57-.33c.76-.07,1.51-.2,2.25-.37,.56-.11,1.09-.35,1.55-.69,.39-.35,.59-.87,.52-1.4,.03-.52-.07-1.03-.31-1.49-.18-.36-.46-.65-.81-.86-.36-.21-.76-.35-1.18-.41-.48-.06-.97-.1-1.45-.1-.95-.06-1.9,.18-2.7,.7-.7,.61-1.11,1.49-1.15,2.42h-5.8c.04-1.18,.39-2.33,1.01-3.34Zm11.46,8.19c-.39,.12-.79,.23-1.19,.31-.43,.07-.86,.15-1.33,.2s-.93,.12-1.4,.2c-.43,.08-.86,.19-1.28,.33-.4,.12-.77,.31-1.1,.55-.31,.23-.57,.53-.76,.88-.2,.42-.3,.88-.29,1.35,0,.45,.09,.9,.29,1.31,.2,.33,.48,.61,.81,.81,.35,.21,.74,.35,1.14,.43,.44,.08,.9,.12,1.35,.12,.92,.05,1.84-.15,2.66-.56,.57-.34,1.05-.82,1.4-1.4,.28-.5,.47-1.05,.55-1.61,.06-.43,.09-.87,.1-1.31v-2.17c-.27,.25-.59,.45-.94,.57h0Z"/><path class="s" d="M921.01,348.7v-2.95h-.12c-.66,1.16-1.66,2.09-2.86,2.66-1.12,.53-2.35,.81-3.6,.81-1.3,.05-2.6-.16-3.81-.61-.93-.35-1.74-.95-2.35-1.73-.6-.81-1.01-1.75-1.21-2.73-.24-1.18-.36-2.37-.34-3.57v-12.98h5.79v11.93c-.09,1.35,.19,2.7,.81,3.9,.67,.91,1.77,1.4,2.9,1.28,1.3,.12,2.58-.4,3.44-1.4,.69-.94,1.06-2.48,1.06-4.64v-11.07h5.79v21.11h-5.48Z"/><rect class="s" x="748.06" y="282.17" width="11.98" height="12.56" rx="1.33" ry="1.33"/><rect class="s" x="748.06" y="337.38" width="11.98" height="12.56" rx="1.33" ry="1.33"/><rect class="s" x="720.16" y="312.33" width="12.56" height="11.98" rx="1.33" ry="1.33"/><rect class="s" x="775.37" y="312.33" width="12.56" height="11.98" rx="1.33" ry="1.33"/><rect class="s" x="728.23" y="330.71" width="12.56" height="11.98" rx="1.33" ry="1.33" transform="translate(-22.95 617.99) rotate(-45)"/><rect class="s" x="767.29" y="291.67" width="12.56" height="11.98" rx="1.33" ry="1.33" transform="translate(16.09 634.18) rotate(-45)"/><rect class="s" x="767.58" y="330.43" width="11.98" height="12.56" rx="1.33" ry="1.33" transform="translate(-11.51 645.61) rotate(-45)"/><rect class="s" x="728.53" y="291.39" width="11.98" height="12.56" rx="1.33" ry="1.33" transform="translate(4.65 606.57) rotate(-45)"/><path class="s" d="M720.85,194.64h11.46l6.14-35.18h-11.46l-2.27,12.59h-9.92l2.26-12.59h-11.45l-6.15,35.18h11.47l2.29-13.15h9.93l-2.3,13.15Zm24.08-35.18l-3.45,19.54c-.29,1.45-.44,2.93-.44,4.41,0,10.36,9.07,11.93,14.51,11.93,11.41,0,16.32-3.78,18.14-14.02l3.84-21.91h-11.51l-3.26,18.38c-1.05,5.75-1.81,8.8-6.04,8.8-2.78,0-4.14-1.49-4.14-4.53,.04-1.48,.21-2.95,.52-4.4l3.31-18.2h-11.47Zm93.07,35.18h11.48l1.61-9.07h5.44c9.97,0,15.53-5.44,15.53-15.25,0-6.9-4.81-10.88-13.21-10.88h-14.7l-6.16,35.2Zm17.86-17.72h-3.32l1.52-8.28h3.16c2.51,0,3.91,1.27,3.91,3.57,0,2.94-1.96,4.71-5.19,4.71h-.08Zm38.37-18.14c-12.47,0-19.9,8.04-19.9,21.56,0,9.4,5.92,15.07,15.84,15.07,12.47,0,19.9-8.06,19.9-21.57,0-9.45-5.89-15.06-15.84-15.06h0Zm-3.34,27.51c-2.93,0-4.7-2.13-4.7-5.69,0-1.31,.13-2.62,.39-3.91,.91-4.62,2.36-8.85,7.01-8.85,2.93,0,4.71,2.14,4.71,5.71,0,1.31-.13,2.62-.39,3.91-.91,4.62-2.38,8.83-7.02,8.83h0Zm59.06,8.34h11.46l4.53-25.75h8.59l1.65-9.42h-29.34l-1.59,9.42h9.15l-4.45,25.75Zm-18.98-22.17c-3.63-1.13-5.09-1.6-5.09-3.3,0-1.13,.74-2.48,2.94-2.48,1.51-.03,2.88,.87,3.45,2.27l10.11-2.72c-1.19-4.96-5.44-7.48-12.8-7.48-13.82,0-14.94,9.28-14.94,12.08,0,5.75,3.05,9.28,9.66,11.11,1.73,.46,3.75,.97,3.75,2.93,0,1.52-1.13,2.48-3.08,2.48-1.91,.03-3.63-1.11-4.36-2.87l-9.97,2.72c1.11,5.23,6.05,8.16,13.69,8.16,5.86,0,15.71-1.58,15.71-12.21,0-5.3-2.93-8.8-9.07-10.67h0Z"/><path class="s" d="M693.06,194.64l6.19-35.18h-18.97v35.18h12.78Zm288.05-35.18l-6.15,35.18h18.98v-35.18h-12.83Z"/><path class="s" d="M791.13,184.28h9.63l1.57-8.81h-9.63l1.09-6.53h13.46l1.65-9.49h-24.89l-6.14,35.18h11.44l1.82-10.36Zm30.02,0h9.68l1.58-8.81h-9.66l1.09-6.53h13.44l1.67-9.49h-24.89l-6.15,35.18h11.47l1.78-10.36Z"/><path class="s" d="M155.59,164.03l-5.11,3.39,1.75,1.5v19.94c-.06,1.75-1.53,3.12-3.28,3.07h-1.08v-24.98l-4.4-2.78-5.56,3.58,.26,.51,1.25-.77s2.04,1.89,2.04,3.65v20.58c-2.26,.61-4.52,2.49-4.52,6.63,.19,2.52,2.12,4.57,4.63,4.9,2.15,.09,4.3-.08,6.41-.49,1.24-.23,2.5-.32,3.75-.27,1.44-.13,2.86,.37,3.89,1.38l.51,.51c.68-.81,1.07-1.83,1.12-2.88,.09-1.76-.83-3.41-2.37-4.26-1.27-.61-2.68-.88-4.09-.77-.42,0-.84,.05-1.26,.13-.95,.15-1.92,.24-2.88,.25-1.38,.12-2.88,.39-3.89,.51-.41,.08-.84,.12-1.26,.12-.64,0-1.26-.22-1.75-.63-.37-.31-.56-.78-.51-1.26,.13-1.75,2.38-2.49,3.07-2.63h.75c2.44,.48,4.92,.73,7.4,.75,1.08-.02,2.14-.23,3.15-.61,1.05-.4,2-1,2.8-1.78,.72-.58,1.32-1.31,1.76-2.13,.5-.88,.76-1.87,.75-2.88v-20.03c-1.02-.81-2.04-1.56-3.14-2.27"/><path class="s" d="M158.48,166.41l1.89-1.13"/><path class="s" d="M204.4,188.62l-1.12,.76-1.02-.88v-21.95l-3.76-2.51-6.9,4.53-.26-.38c-.53-1.6-1.59-2.97-3.01-3.88l-6.53,4.39,.26,.38c.36-.24,.73-.45,1.12-.62,.85,.97,1.45,2.14,1.76,3.39v16.66l-1.76,1.5,5.03,3.39,5.01-3.27-1.76-1.5v-18.4l1.76-1.12,2.51,2.76v17.19c0,2.04,1.63,3.51,2.76,4.39l6.13-4.02-.25-.76"/><path class="s" d="M201.89,166.79l1.76-1.12m-133.11,24.21l1.76-1.13"/><path class="s" d="M83.84,188.87s-1.63,1.02-1.89,1.13l-3.63-2.61v-8.18l8.9-6.02-5.11-9.4-10.72,7.02v18.19c2.04,1.38,6.39,4.01,6.39,4.01l6.03-3.9,.03-.24Zm-5.4-20.7l4.09,7.16-4.09,2.76v-9.92"/><path class="s" d="M205.65,190l1.76-1.13"/><path class="s" d="M344.78,164.78s-4.53,3.02-5.4,3.53c-.66-1.74-1.77-3.26-3.23-4.42l-6.29,4.09,.26,.38c.3-.2,.6-.41,.88-.63l.38,.26c.76,.75,1.12,1.26,1.12,1.64v17.79l-1.87,1.51,5.11,4.01s5.52-3.87,5.4-3.75l-2.04-1.77v-17.47l1.13-.76,2.5,3.27s-.25,.37-.37,.61c-.6,.71-.96,1.59-1.02,2.51,0,.38,.51,1.5,1.26,1.5h.12c.39-.02,.77-.1,1.13-.25l.25-.12h-.25c-.3-.1-.6-.23-.88-.38h-.13c-.32-.3-.53-.69-.61-1.12,.1-.86,.5-1.66,1.12-2.27,1.31-1.34,2.73-2.55,4.26-3.63l-2.88-4.53"/><path class="s" d="M570.25,168.43l1.76-1.13m-19.57,22.62l1.76-1.12"/><path class="s" d="M131.76,187.4c-3.31-2.3-6.98-4.03-10.87-5.11h-.12l4.02-6.02c5.11,1.13,8.66,3.88,8.66,6.89-.07,1.56-.66,3.06-1.69,4.24Zm-9.26-19.61c-.75-.12-3.01-.5-3.51-.62-1.88-.38-11.04-3.14-11.04-7.16,0-4.63,5.9-4.63,8.78-4.63,.63,0,7.28,.62,10.54,4.89-.12,.25-4.02,6.28-4.77,7.52Zm20.08-6.13c.52-.51,.88-1.17,1.02-1.88-.02-.6-.24-1.17-.63-1.63-.46-.55-1.17-.83-1.88-.76h-.51c-2.04,0-4.09,1.25-6.39,3.52-1.57,1.56-2.92,3.33-4.02,5.25-1.02,1.64-1.5,2.39-1.75,2.76-1.61-.18-3.2-.47-4.77-.87,.63-1.13,2.64-4.52,4.9-7.78,1.42-1.99,2.97-3.87,4.64-5.65,.14-.16,.3-.28,.49-.38,.14-.12,.39-.12,.39-.25s-.25-.39-.25-.39c-.14-.02-.28,.03-.39,.12-.12,.13-.37,.13-.62,.13-.54-.13-1.03-.44-1.38-.88-2.86-2.58-6.57-4.01-10.42-4.02-9.53,0-15.17,8.03-15.05,13.43,0,3.39,.62,7.02,2.38,8.53s4.52,2.76,9.53,3.89l.38,.12-.75,.87c-1.21,1.38-2.94,2.21-4.77,2.27-1.06,.05-2.09-.32-2.88-1.02h-.12c.26,.48,.55,.94,.88,1.38,.35,.52,.89,.89,1.5,1.02,.59,.06,1.19,.02,1.76-.13,1.66-.61,3.13-1.65,4.26-3.01l1.12-1.26,3.53,.62c.37,.12,.75,.12,1.12,.25l-1.54,2.26c-1.88,2.76-2.49,3.64-2.49,3.64-.55-.05-1.1-.14-1.65-.26-1.62-.24-3.25-.33-4.89-.26-4.39,0-10.28,1.5-13.92,5.11-.74,.7-1.37,1.5-1.88,2.38-.85,1.44-1.29,3.09-1.27,4.76,0,2.14,1.38,4.76,5.52,4.76,5.4,0,10.22-5.11,12.68-7.77l.37-.51c.76-.75,1.13-1.38,1.38-1.63,4.12,1.24,8.05,3.06,11.66,5.4,2.01-2.24,3.84-4.63,5.48-7.16,1.25-1.87,4.09-6.13,4.26-9.4s-2.88-7.03-8.4-8.18c.39-.75,.85-1.47,1.38-2.13,2.26-3.52,4.26-7.16,8.66-7.16,1.36-.21,2.69,.51,3.26,1.76l.07,.08Zm-32.23,31.74c-.99,.83-2.04,1.58-3.14,2.26-1.01,.58-2.11,1-3.25,1.25-.3,.06-.59,.15-.87,.26-.45,.11-.92,.15-1.38,.13h-.67c-2.26-.27-3.51-1.51-3.51-3.39,0-5.02,8.4-6.53,11.42-6.53h.63c1.72,.04,3.43,.25,5.11,.63h.65c-1.21,1.58-2.55,3.04-4.02,4.39-.28,.4-.62,.74-1.02,1.02m-63.38-12.27c-3.88,4.76-7.4,6.27-7.92,6.4v-24.93c4.4-.25,7.52-2.76,7.52-6.9-.02-.64-.15-1.28-.37-1.88-1.16,1.34-2.87,2.09-4.64,2.04-3.15,0-6.65-1.02-10.29-2.04-3.74-1.28-7.64-2.02-11.59-2.21-5.65,.12-12.17,2.76-12.17,10.22,.28,4.15,2.64,7.88,6.28,9.91h.13c-.58,1.4-.93,2.88-1.02,4.4,0,7.16,4.4,17.94,16.97,17.94,2.89,.03,5.74-.67,8.28-2.04,2.03-1.11,3.82-2.6,5.27-4.4,1.56-1.95,2.76-4.14,3.57-6.5h-.01Zm-20.62,5.85c.18-.11,.35-.23,.5-.38,4.14-2.76,6.13-5.27,6.13-7.78v-16.82c1.64,.43,3.33,.64,5.03,.63v25.22c-3.87,1.21-8.06,.9-11.71-.88h.05Zm.37-4.09c-.11,1.29-.55,2.53-1.29,3.59l-.38-.25c-4.26-2.76-6.4-8.18-6.65-13.93-.25-4.14,2.04-9.66,5.11-13.05,1.03,.25,2.04,.59,3.01,1.02v22.62h.2Zm-4.09-23.84c-3.56,3.41-6.43,7.48-8.44,11.98l-.26-.13c-1.93-.89-2.81-3.24-2.81-5.24-.25-4.9,3.26-7.03,7.92-7.03,1.22,.03,2.44,.16,3.64,.38m355.21,4.77c-.12,.12-6.13,4.09-6.13,4.09l.25,.5c.35-.19,.68-.41,1.02-.63l.37,.26c.76,.75,1.02,1.26,1.02,1.64v19.93l3.25,3.39,6.29-3.39-.51-.61-.87,.49-1.51-1.63v-21.27s-3.02-2.64-3.14-2.76m-3.67-7.05l4.02-3.15,3.51,3.39-4.09,2.88-3.47-3.13m-134.12,7.16l-5.11,3.39,1.76,1.5v19.93c-.07,1.76-1.56,3.14-3.32,3.07h-1.02v-24.91l-4.4-2.88-5.65,3.63,.25,.51s1.02-.63,1.26-.76c0,0,2.04,1.89,2.04,3.64v21c-2.26,.62-4.53,2.38-4.53,6.51,.2,2.53,2.14,4.57,4.65,4.91,2.14,.08,4.29-.08,6.39-.5,1.25-.22,2.51-.35,3.77-.39,1.44-.12,2.86,.38,3.89,1.38l.49,.51c.67-.82,1.07-1.83,1.13-2.88,.08-1.76-.85-3.42-2.39-4.26-1.29-.62-2.72-.89-4.14-.77-.42,0-.84,.05-1.25,.13-.96,.15-1.92,.24-2.89,.25-1.5,.12-2.88,.39-3.88,.51-.41,.08-.84,.12-1.26,.12-.68,0-1.34-.22-1.88-.63-.38-.31-.61-.77-.62-1.26,.13-1.75,2.27-2.49,3.07-2.63h1.02c2.44,.48,4.92,.73,7.4,.75,1.07-.03,2.13-.24,3.14-.61,1.03-.4,1.97-1,2.76-1.78,.72-.58,1.31-1.31,1.75-2.13,.48-.88,.7-1.87,.64-2.86v-20.09c0-.38-3.01-2.38-3.01-2.38m210.52,12.54c.46-.02,.93,.02,1.38,.13,.29,.1,.53,.32,.63,.61,.12,.13,.12,6.41,.12,6.41,.1,.72,0,1.45-.32,2.11,2.38-1.16,4.41-2.92,5.89-5.11,1.02-1.89,.89-5.77,.75-9.78-.12-4.65-.25-9.78,1.26-13.68-1.49,.97-2.87,2.1-4.09,3.39-1.09,.94-1.99,2.08-2.66,3.35-.6,2.12-.86,4.31-.76,6.51-7.16,.77-8.53,4.02-8.4,6.9,0,.13,.12,.63,.12,1.02l.12,.37c1.38-1.75,3.39-2.26,6.02-2.26m-6.13-19.81c.26,0,1.5,.27,4.26,.89,1.51,.37,3.39,.76,3.65,.76h1.5c1.5,0,4.76-1.89,8.65-5.11l.62-.49c-.98,.45-2.05,.7-3.13,.75-1.94-.17-3.84-.59-5.66-1.26-2.04-.8-4.2-1.27-6.39-1.38-4.4,0-7.28,2.64-7.28,6.52,.03,1.01,.39,1.98,1.02,2.76-.14-.36-.23-.74-.25-1.12,.12-1.38,1.12-2.27,3.01-2.27m32.8-7.77c1.23,.57,2.25,1.53,2.89,2.73-2.15,1.5-4.91,3.63-5.78,4.09-1.64-1.87-3.76-4.39-5.4-4.52-.46-.01-.93,.03-1.38,.12-.34,.22-.53,.62-.5,1.02v14.62l6.13-3.88,4.88,4.91v16.36c0,4.64-3.26,9.53-9.66,13.8,3.19,.88,6.55,.97,9.78,.25-2.38,3.52-5.01,5.27-8.02,5.27-.6-.03-1.2-.16-1.76-.38-1.91-.79-4.02-.96-6.03-.5,2.61-1.95,4.82-4.38,6.52-7.16,1.47-2.41,2.26-5.19,2.27-8.01v-16.05l-4.4-3.13v1.75c0,4.09,0,7.79-.87,9.66-.76,1.5-3.52,3.89-5.91,5.11,.32-.67,.45-1.4,.39-2.14v-20.66c0-.38,.12-2.14,.12-2.5,.23-3.47,2.14-6.61,5.11-8.4,3.14-2.27,5.78-3.15,7.78-3.15,1.21-.01,2.41,.25,3.51,.76M69.41,190c-.37,.39-3.51,2.51-4.39,3.27-1.12,.77-2.08,1.75-2.83,2.88-.64,.97-1,2.1-1.02,3.26-.01,.41,.12,.81,.38,1.12,.67,.56,1.51,.88,2.38,.89h.75c.3,.03,.61-.02,.89-.14v.14c-.2,.52-.61,.93-1.13,1.12-.5,.29-1.05,.46-1.63,.51-1.62-.03-2.92-1.36-2.89-2.98v-.16c0-1.87,2.38-5.11,3.88-6.63,0,0-2.76-2.26-2.76-4.02v-17.95l-2.5-2.76-1.76,1.13v18.55c.12,.13,1.76,1.51,1.76,1.51l-5.02,3.39-5.11-3.39,1.77-1.51v-30.48c0-1.5-.12-3.63-.63-4.26-.34-.39-.77-.69-1.26-.87,.25-1.21,1.33-2.07,2.57-2.04,.71,.01,1.41,.19,2.04,.51,.5-1.02,1.5-2.76,3.51-2.76,.59,.06,1.15,.28,1.64,.62-1.51,1.63-1.38,5.26-1.38,7.39v12.14l6.9-4.53,4.01,2.64v19.95c.24,1.31,.9,2.5,1.88,3.39m481.38-1.37l.26,.39-6.27,4.01-4.91-3.39,1.65-1.5v-31.07c0-1.5-.12-3.64-.63-4.26-.33-.4-.77-.7-1.26-.88,.24-1.25,1.37-2.12,2.64-2.04,.66,.01,1.3,.18,1.88,.49,.88-.76,1.64-2.14,3.76-2.14,.59,.07,1.15,.29,1.63,.63-.89,1.19-1.33,2.66-1.25,4.14-.13,8.54,0,35.5,0,35.5l1.38,1.26,1.12-1.13"/><path class="s" d="M67.3,166.79l1.76-1.12m110.4,2.64l1.77-1.13m-19.58,22.49l1.76-1.12m79.53-22.2l1.76-1.13m82.41,2.76l1.76-1.13m-19.61,23.3l1.77-1.13m69.51-22.33l1.77-1.13m-9.31,24.94l1.76-1.13m51.43-21.2l1.76-1.12m107.01,.25l1.76-1.12"/><path class="s" d="M553.64,152.11v8.4c1.26,1.26,4.27,4.02,5.66,5.27-1.69,1.4-3.66,2.42-5.78,3.01-.12,0,.26,.63,.26,1.26v18.95l5.65,4.26c3.32-2.31,7.08-3.94,11.04-4.77v-20.36l-16.84-16.02Zm7.16,15.06l3.39,3.26v18.82l-3.89-2.76v-18.82l.5-.5m-237.56-3.39c-4,2.33-8.3,4.09-12.79,5.22-.13,0,.25,.63,.25,1.26v18.96l5.65,4.26c3.32-2.31,7.08-3.94,11.04-4.77v-21.04l-4.15-3.89Zm-5.65,4.01l3.54,3.77v17.7l-3.88-2.76v-18.4l.37-.26m-154.69-15.84v8.41c1.26,1.26,4.27,4.02,5.66,5.26-1.7,1.4-3.66,2.44-5.78,3.07-.12,0,.27,.63,.27,1.26v18.97l5.65,4.27c3.31-2.33,7.06-3.97,11.02-4.81v-20.44l-16.83-15.99Zm7.03,15.06l3.39,3.26v18.84l-3.89-2.76v-18.81l.5-.49"/><path class="s" d="M535.85,189.5l1.75-1.12"/><path class="s" d="M341.02,189.11l1.25-.89"/><path class="s" d="M535.85,188.87c-.38-.46-.6-1.04-.63-1.64v-20.36c-.38-.37-3.39-3.13-3.39-3.13l-5.03,4.09-3.87-3.67-4.96,3.96,3.51,3.89c-.5,.75-2.04,3.63-.25,5.9,.15,.21,.32,.42,.49,.61l-.49,.13c-3.07,1.11-5.22,3.9-5.52,7.16,0,2.14,1.02,5.78,4.02,7.29l8.9-5.52v.61c.34,1.88,1.21,3.63,2.5,5.03l5.27-3.77-.55-.58Zm-7.51-2.63l-4.27,2.63c-1.22-.67-2.22-1.67-2.88-2.88-.58-1.13-.88-2.37-.88-3.64,0-.76,.22-1.5,.63-2.14,.22-.28,.47-.53,.75-.75,.26-.12,.63-.26,.88,0,1.64,1.26,3.39,1.38,5.66,1.38l.12,5.4h-.01Zm-1.51-17.38l1.38,1.51v9.4c-2.38,.12-4.26-.37-5.11-1.26-3.63-3.39-.38-7.77,3.76-9.66m-156.16,19.75l-1.12,.76-1.02-.88v-21.95l-3.77-2.51-6.9,4.64-.26-.37c-.59-1.61-1.63-3-3.01-4.02l-6.53,4.39,.26,.5,1.12-.75c.83,.98,1.44,2.14,1.76,3.39v16.67l-1.78,1.5,5.03,3.39,5.11-3.27-1.76-1.5v-18.4l1.76-1.12,2.5,2.76v17.19c0,2.04,1.64,3.51,2.76,4.52l6.13-4.02-.25-.88"/><path class="s" d="M368.24,166.79l1.88-1.12"/><path class="s" d="M406.63,188.62l-1.13,.76-1.02-.88v-21.95l-3.76-2.51-6.9,4.64-.25-.37c-.59-1.61-1.63-3-3.01-4.02l-6.53,4.39,.25,.5,1.13-.75c.82,.99,1.42,2.15,1.76,3.39v16.67l-1.76,1.5,5.01,3.39,5.03-3.27-1.76-1.5v-18.4l1.76-1.12,2.5,2.76v17.19c0,2.04,1.64,3.51,2.76,4.52l6.13-4.02-.25-.88"/><path class="s" d="M404.23,166.79l1.77-1.12"/><path class="s" d="M219.21,188.87l-1.89,1.13-3.66-2.61v-8.18l8.9-6.02-5.01-9.4-10.67,7.02v18.2c2.04,1.38,6.4,4.01,6.4,4.01l6.04-3.9-.12-.26h.01Zm-5.4-20.69l4.14,7.16-4.14,2.76v-9.92"/><path class="s" d="M480.51,190l1.76-1.13"/><path class="s" d="M494.2,189.01l-1.89,1.12s-3.51-2.62-3.63-2.62v-8.18l8.91-6.13-5.04-9.31-10.67,7.02v18.22c2.04,1.38,6.41,4.01,6.41,4.01l6.13-3.88-.22-.25Zm-5.52-20.7l4.14,7.16-4.14,2.76v-9.91m24.32-3.54s-4.53,3.02-5.4,3.53c-.67-1.73-1.79-3.25-3.26-4.4l-6.27,4.09,.25,.38c.3-.19,.59-.41,.87-.63l.39,.26c.75,.75,1.13,1.26,1.13,1.64v17.77l-1.88,1.51,5.11,4.01s5.52-3.87,5.39-3.75l-2.04-1.77v-17.47l1.13-.76,2.51,3.27c-.14,.2-.26,.4-.38,.61-.61,.7-.97,1.59-1.02,2.51,0,.38,.49,1.38,1.26,1.38h.16c.39-.02,.77-.1,1.12-.25l.26-.12h-.26c-.3-.1-.6-.23-.88-.38h-.1c-.33-.3-.55-.7-.63-1.13,.11-.86,.51-1.66,1.13-2.26,1.3-1.35,2.73-2.57,4.26-3.64l-2.88-4.4"/><path class="s" d="M509.12,189.11l1.26-.89"/><path class="s" d="M415.65,168.05l4.53,4.14v15.21l-1.38,1.13h-.13c-1.91-1.05-3.25-2.9-3.65-5.05v-15.06l.63-.38Zm10.92,17.66v-17.74s-3.26-2.88-4.53-4.26c-1.12,.87-7.65,3.75-13.92,5.65,.25,.25,.63,.75,.63,.75v11.04c-.09,2.06,.12,4.13,.62,6.13,.66,2.12,2.1,3.91,4.02,5.02l.49,.26-10.22,8.61c.1,.37,.14,.75,.13,1.13,.3-.04,.6-.12,.88-.25,1.24-.61,2.62-.92,4.01-.89,2.76,0,5.78,1.89,7.28,2.76,.22,.1,.43,.23,.62,.39,.88-.27,4.14-2.76,7.02-5.4,1.44-1.29,2.79-2.68,4.03-4.16,.9-.89,1.51-2.03,1.76-3.27-.12-1.02-.61-1.95-1.38-2.63-.78-.88-1.27-1.98-1.4-3.15h-.04Zm-4.76,13.82l-.88-.5c-2.04-1.13-4.02-2.26-6.27-2.26h-.63c-.75,.12-1.88,.25-2.89,.51l-.37-.77,8.78-7.41c1.17,1.02,2.18,2.2,3.01,3.51,.61,.97,.92,2.11,.88,3.26,.03,1.4-.57,2.73-1.63,3.64m-156.4-38.12c-.71-.6-1.16-1.46-1.26-2.38,0-1.63,1.38-3.39,4.02-3.39,1.22,.13,2.43,.33,3.63,.62,.76,.12,1.64,.37,1.77,.37,2.13,0,5.52-2.26,7.65-4.52l.12-.12h-.12c-1.61-.08-3.18-.46-4.64-1.13-1.49-.73-3.12-1.11-4.77-1.13-4.14,0-8.9,3.14-8.9,7.4,0,.87,.88,3.51,2.51,4.26m9.91,26.72c-1.27,.07-2.54-.05-3.76-.38-.91-.22-1.83-.39-2.76-.5h-1.26c-4.89,0-6.52,4.4-6.52,7.02,0,4.65,2.13,9.66,8.18,9.66,1.76,0,5.66-1.02,5.66-4.64,0-.12-.39-2.26-1.38-2.26h-.77c.13,.63,.62,1.64,.62,2.04,0,2.38-3.25,3.63-4.63,3.63-3.26,0-6.27-1.88-6.27-5.89,0-2.14,1.12-4.53,3.63-4.53,2.26,0,5.02,1.38,7.16,1.38,5.02-.12,6.03-3.39,6.13-10.22-.25,1.02-2.04,4.64-4.02,4.64m33,.12c-.3,.24-.65,.41-1.02,.49-.22-.05-.44-.13-.63-.25-1.17-.84-1.87-2.19-1.88-3.63v-26.22c-.03-1.13,.33-2.24,1.02-3.14v-.13c-.79-.58-1.55-1.21-2.27-1.88-1.5-1.26-3.63-2.88-4.76-3.76,0,0-6.02,4.9-6.4,5.26l-2.76-2.26c-1.13-1.02-2.88-2.38-3.39-2.76-.88,.5-13.42,11.16-13.42,11.16v8.9h-.38c-7.02,.88-7.53,6.28-7.53,7.92,0,.25,.26,1.02,.39,1.63v.12l.12-.12c.48-.86,1.12-1.63,1.87-2.26,.81-.6,1.76-.99,2.76-1.13,2.27-.25,2.39-.12,2.51,0l.12,.13v9.47c.08,.67-.09,1.34-.49,1.88,2.37-1.25,5.25-3.64,6.01-5.26,1.02-2.04,.89-2.04,.89-6.13v-.76h5.77v11.04l-2.04,2.13,6.9,4.65,6.4-4.77-.88-.5c-.13,.07-.26,.15-.37,.25-.18,.16-.4,.25-.63,.26-.62,0-2.63-1.76-2.89-2.13v-10.91h6.29v10.41c-.04,1.29,.21,2.58,.75,3.76,.94,1.46,2.18,2.7,3.64,3.65,.63-.39,6.52-4.65,6.52-4.65l-.25-.38,.05-.07Zm-23.29-18.74h-5.79v-12l2.38-2.04,3.4,2.88v11.16Zm13.04,0h-6.51v-12.17l2.26-1.87,4.09,3.87,.12,10.22m159.57,16.04c-7.07,.47-12.65,6.2-12.93,13.29,0,2.64,1.02,6.51,4.77,6.51,1.64,0,2.76-.75,2.76-2.88,0-.52-.13-1.04-.38-1.5-.26,.76-1.51,2.38-2.76,2.38-2.76-.12-3.51-2.26-3.51-4.09,0-4.02,2.88-8.65,7.78-8.65,2.63,0,5.25,1.12,7.92,4.14,0,0,5.65-4.14,5.65-4.26-3.14-4.02-5.11-5.03-9.28-4.91"/></g></g></svg>